<svg version="1.1" id="Layer_1" xmlns="http://www.w3.org/2000/svg" xmlns:xlink="http://www.w3.org/1999/xlink" x="0px" y="0px"
	 width="100%" viewBox="0 0 280 280" enable-background="new 0 0 280 280" xml:space="preserve">
<path fill="#027ACB" opacity="1.000000" stroke="none" 
	d="
M154.000000,281.000000 
	C102.666664,281.000000 51.833332,281.000000 1.000000,281.000000 
	C1.000000,187.666672 1.000000,94.333336 1.000000,1.000000 
	C94.333336,1.000000 187.666672,1.000000 281.000000,1.000000 
	C281.000000,94.333336 281.000000,187.666672 281.000000,281.000000 
	C238.833328,281.000000 196.666672,281.000000 154.000000,281.000000 
M193.143616,207.764191 
	C187.551239,203.530731 181.958862,199.297272 175.588760,194.475067 
	C169.811493,197.848557 162.863815,201.905487 155.344955,206.295929 
	C157.905197,209.915054 159.762741,213.308228 162.325745,216.039368 
	C178.929581,233.732346 199.511047,235.975327 221.561539,230.073837 
	C234.558502,226.595383 243.513992,217.925171 245.915268,204.333664 
	C248.584396,189.226212 245.269562,175.568909 231.877670,166.427231 
	C224.923828,161.680344 217.090744,158.213760 209.619431,154.235352 
	C204.634674,151.581009 199.385880,149.363388 194.627289,146.360718 
	C190.257019,143.603058 188.868927,138.289490 190.551743,133.520828 
	C192.261063,128.676987 195.955109,126.763603 200.923965,126.409904 
	C207.396103,125.949188 212.046188,128.759033 216.031403,133.547989 
	C217.061859,134.786285 219.759949,136.270218 220.593719,135.778610 
	C226.860916,132.083374 232.853271,127.922005 238.993103,123.865768 
	C238.371933,122.706772 238.100327,122.109032 237.750748,121.561028 
	C228.645782,107.287979 215.224960,102.348686 198.855286,102.963417 
	C183.376831,103.544670 169.241013,112.265427 165.373856,126.798401 
	C161.362732,141.872437 162.950089,155.565674 176.470367,165.971451 
	C183.233383,171.176544 191.313522,174.697479 198.892532,178.805649 
	C204.000519,181.574402 209.415878,183.793976 214.430679,186.711395 
	C218.858749,189.287491 220.679047,193.596161 219.895706,198.678955 
	C219.193726,203.233719 216.037643,205.920181 211.988693,207.591553 
	C206.039352,210.047333 199.997528,209.997711 193.143616,207.764191 
M74.479019,127.949570 
	C78.237968,127.949570 81.996925,127.949570 86.349121,127.949570 
	C86.349121,162.749130 86.349121,196.782547 86.349121,231.015686 
	C95.486908,231.015686 104.011017,231.015686 113.063744,231.015686 
	C113.063744,196.344162 113.063744,162.300430 113.063744,127.688965 
	C125.320900,127.688965 137.044250,127.688965 148.622314,127.688965 
	C148.622314,119.704773 148.622314,112.302261 148.622314,104.710846 
	C146.951553,104.605614 145.642776,104.453850 144.333679,104.450951 
	C118.018311,104.392807 91.702911,104.346626 65.387505,104.312836 
	C61.390491,104.307709 57.377884,104.190109 53.405548,104.521210 
	C52.175735,104.623703 50.074379,105.999344 50.039909,106.858971 
	C49.762794,113.770004 49.884811,120.697037 49.884811,127.949570 
	C58.194767,127.949570 65.840569,127.949570 74.479019,127.949570 
z"/>
<path fill="#FAFCFE" opacity="1.000000" stroke="none" 
	d="
M193.540131,207.858673 
	C199.997528,209.997711 206.039352,210.047333 211.988693,207.591553 
	C216.037643,205.920181 219.193726,203.233719 219.895706,198.678955 
	C220.679047,193.596161 218.858749,189.287491 214.430679,186.711395 
	C209.415878,183.793976 204.000519,181.574402 198.892532,178.805649 
	C191.313522,174.697479 183.233383,171.176544 176.470367,165.971451 
	C162.950089,155.565674 161.362732,141.872437 165.373856,126.798401 
	C169.241013,112.265427 183.376831,103.544670 198.855286,102.963417 
	C215.224960,102.348686 228.645782,107.287979 237.750748,121.561028 
	C238.100327,122.109032 238.371933,122.706772 238.993103,123.865768 
	C232.853271,127.922005 226.860916,132.083374 220.593719,135.778610 
	C219.759949,136.270218 217.061859,134.786285 216.031403,133.547989 
	C212.046188,128.759033 207.396103,125.949188 200.923965,126.409904 
	C195.955109,126.763603 192.261063,128.676987 190.551743,133.520828 
	C188.868927,138.289490 190.257019,143.603058 194.627289,146.360718 
	C199.385880,149.363388 204.634674,151.581009 209.619431,154.235352 
	C217.090744,158.213760 224.923828,161.680344 231.877670,166.427231 
	C245.269562,175.568909 248.584396,189.226212 245.915268,204.333664 
	C243.513992,217.925171 234.558502,226.595383 221.561539,230.073837 
	C199.511047,235.975327 178.929581,233.732346 162.325745,216.039368 
	C159.762741,213.308228 157.905197,209.915054 155.344955,206.295929 
	C162.863815,201.905487 169.811493,197.848557 175.588760,194.475067 
	C181.958862,199.297272 187.551239,203.530731 193.540131,207.858673 
z"/>
<path fill="#F8FBFD" opacity="1.000000" stroke="none" 
	d="
M73.982697,127.949570 
	C65.840569,127.949570 58.194767,127.949570 49.884811,127.949570 
	C49.884811,120.697037 49.762794,113.770004 50.039909,106.858971 
	C50.074379,105.999344 52.175735,104.623703 53.405548,104.521210 
	C57.377884,104.190109 61.390491,104.307709 65.387505,104.312836 
	C91.702911,104.346626 118.018311,104.392807 144.333679,104.450951 
	C145.642776,104.453850 146.951553,104.605614 148.622314,104.710846 
	C148.622314,112.302261 148.622314,119.704773 148.622314,127.688965 
	C137.044250,127.688965 125.320900,127.688965 113.063744,127.688965 
	C113.063744,162.300430 113.063744,196.344162 113.063744,231.015686 
	C104.011017,231.015686 95.486908,231.015686 86.349121,231.015686 
	C86.349121,196.782547 86.349121,162.749130 86.349121,127.949570 
	C81.996925,127.949570 78.237968,127.949570 73.982697,127.949570 
z"/>
</svg>