<svg version="1.1" id="Layer_1" xmlns="http://www.w3.org/2000/svg" xmlns:xlink="http://www.w3.org/1999/xlink" x="0px" y="0px"
	 width="100%" viewBox="0 0 280 280" enable-background="new 0 0 280 280" xml:space="preserve">
<path fill="#F6DF1E" opacity="1.000000" stroke="none" 
	d="
M256.000000,281.000000 
	C170.704544,281.000000 85.909088,281.000000 1.056817,281.000000 
	C1.056817,187.746246 1.056817,94.492455 1.056817,1.119327 
	C94.211975,1.119327 187.424149,1.119327 280.818176,1.119327 
	C280.818176,94.333023 280.818176,187.666504 280.818176,281.000000 
	C272.825958,281.000000 264.662994,281.000000 256.000000,281.000000 
M249.083267,247.589081 
	C265.047577,230.640533 262.396973,204.219101 242.938293,191.117599 
	C236.241776,186.608810 228.558762,183.568085 221.338501,179.833313 
	C216.188431,177.169357 210.830215,174.818344 205.987137,171.676712 
	C201.579208,168.817368 200.860275,163.994415 202.070892,159.159348 
	C203.308853,154.215088 207.138290,151.822647 211.907379,151.191467 
	C218.509048,150.317764 224.039795,152.483444 228.137009,157.895248 
	C229.198563,159.297379 230.258331,160.700882 231.340103,162.131790 
	C238.207016,157.700668 244.729858,153.491577 251.197220,149.318268 
	C243.834900,134.225967 228.859085,126.625046 210.150238,128.151367 
	C184.953445,130.206970 170.455063,150.403671 177.070526,174.382446 
	C180.664337,187.408783 190.471832,194.553513 201.933792,200.003098 
	C209.881317,203.781769 217.969437,207.283112 225.783844,211.316879 
	C230.923370,213.969894 233.732727,218.512848 232.742096,224.505600 
	C231.744553,230.540253 227.315048,233.578003 221.834808,234.834656 
	C210.478363,237.438736 200.761124,234.450317 193.145264,225.416748 
	C191.673553,223.671082 190.348831,221.801468 188.865005,219.870193 
	C181.654785,224.074341 174.709518,228.124008 167.793503,232.156616 
	C183.076447,260.415070 224.723373,268.338135 249.083267,247.589081 
M85.176941,228.691437 
	C81.688309,230.799545 78.199684,232.907654 74.766548,234.982224 
	C84.461342,253.672623 101.768417,261.912506 122.778053,258.333069 
	C139.833054,255.427368 149.626785,246.066177 152.622269,229.347656 
	C153.380005,225.118500 153.432709,220.725143 153.443756,216.406296 
	C153.513168,189.257629 153.479324,162.108673 153.479599,134.959824 
	C153.479614,133.222229 153.479599,131.484650 153.479599,129.908722 
	C144.184067,129.908722 135.759506,129.908722 127.100555,129.908722 
	C127.100555,156.401016 127.106483,182.541168 127.095055,208.681335 
	C127.093018,213.344345 127.204628,218.017960 126.938278,222.668030 
	C126.436806,231.422974 121.826744,235.591553 113.090225,235.537491 
	C107.238075,235.501266 102.989349,232.659805 99.806526,227.961090 
	C98.535637,226.084961 97.307182,224.180054 95.988831,222.181244 
	C92.315979,224.368744 89.044922,226.316940 85.176941,228.691437 
z"/>
<path fill="#020200" opacity="1.000000" stroke="none" 
	d="
M248.818970,247.826538 
	C224.723373,268.338135 183.076447,260.415070 167.793503,232.156616 
	C174.709518,228.124008 181.654785,224.074341 188.865005,219.870193 
	C190.348831,221.801468 191.673553,223.671082 193.145264,225.416748 
	C200.761124,234.450317 210.478363,237.438736 221.834808,234.834656 
	C227.315048,233.578003 231.744553,230.540253 232.742096,224.505600 
	C233.732727,218.512848 230.923370,213.969894 225.783844,211.316879 
	C217.969437,207.283112 209.881317,203.781769 201.933792,200.003098 
	C190.471832,194.553513 180.664337,187.408783 177.070526,174.382446 
	C170.455063,150.403671 184.953445,130.206970 210.150238,128.151367 
	C228.859085,126.625046 243.834900,134.225967 251.197220,149.318268 
	C244.729858,153.491577 238.207016,157.700668 231.340103,162.131790 
	C230.258331,160.700882 229.198563,159.297379 228.137009,157.895248 
	C224.039795,152.483444 218.509048,150.317764 211.907379,151.191467 
	C207.138290,151.822647 203.308853,154.215088 202.070892,159.159348 
	C200.860275,163.994415 201.579208,168.817368 205.987137,171.676712 
	C210.830215,174.818344 216.188431,177.169357 221.338501,179.833313 
	C228.558762,183.568085 236.241776,186.608810 242.938293,191.117599 
	C262.396973,204.219101 265.047577,230.640533 248.818970,247.826538 
z"/>
<path fill="#020200" opacity="1.000000" stroke="none" 
	d="
M85.475403,228.478271 
	C89.044922,226.316940 92.315979,224.368744 95.988831,222.181244 
	C97.307182,224.180054 98.535637,226.084961 99.806526,227.961090 
	C102.989349,232.659805 107.238075,235.501266 113.090225,235.537491 
	C121.826744,235.591553 126.436806,231.422974 126.938278,222.668030 
	C127.204628,218.017960 127.093018,213.344345 127.095055,208.681335 
	C127.106483,182.541168 127.100555,156.401016 127.100555,129.908722 
	C135.759506,129.908722 144.184067,129.908722 153.479599,129.908722 
	C153.479599,131.484650 153.479614,133.222229 153.479599,134.959824 
	C153.479324,162.108673 153.513168,189.257629 153.443756,216.406296 
	C153.432709,220.725143 153.380005,225.118500 152.622269,229.347656 
	C149.626785,246.066177 139.833054,255.427368 122.778053,258.333069 
	C101.768417,261.912506 84.461342,253.672623 74.766548,234.982224 
	C78.199684,232.907654 81.688309,230.799545 85.475403,228.478271 
z"/>
</svg>