<svg version="1.1" id="Layer_1" xmlns="http://www.w3.org/2000/svg" xmlns:xlink="http://www.w3.org/1999/xlink" x="0px" y="0px"
	 width="100%" viewBox="0 0 288 272" enable-background="new 0 0 288 272" xml:space="preserve">
<path fill="#000000" opacity="1.000000" stroke="none" 
	d="
M146.081390,131.735748 
	C144.968857,135.714401 145.966400,140.579620 139.660202,140.388351 
	C135.657150,140.266937 134.472046,138.003952 133.917831,134.839157 
	C131.484390,120.942848 129.108032,107.036545 126.713516,93.133415 
	C125.248680,84.628227 123.803780,76.119568 122.316658,67.618279 
	C121.881958,65.133263 120.924240,62.406044 124.708023,61.794376 
	C128.338211,61.207539 131.436935,61.798717 132.096436,66.267052 
	C133.162262,73.488297 134.240662,80.707695 135.296997,87.930328 
	C136.687210,97.436119 138.061203,106.944283 140.420074,116.515465 
	C141.506714,108.619858 142.575073,100.721687 143.684830,92.829346 
	C144.932785,83.954170 146.313751,75.096375 147.441101,66.206200 
	C147.906479,62.536285 149.911346,61.592274 153.234238,61.656540 
	C156.612015,61.721863 157.910858,63.486126 158.328918,66.549545 
	C160.616806,83.315147 162.960938,100.073074 166.135605,116.914787 
	C167.287064,109.872238 168.503983,102.839607 169.573975,95.784698 
	C171.017242,86.268600 172.420120,76.745041 173.691727,67.204880 
	C174.228165,63.180264 176.060272,61.236771 180.292526,61.704296 
	C184.983536,62.222500 183.687424,65.647896 183.260712,68.139526 
	C180.206726,85.971916 176.961899,103.771652 173.769745,121.580338 
	C172.979202,125.990669 172.018265,130.375961 171.396423,134.809326 
	C170.875977,138.519760 169.337509,140.471573 165.260452,140.356735 
	C161.247513,140.243698 160.210358,137.793243 159.765991,134.585358 
	C157.716415,119.789978 155.693771,104.990860 153.643539,90.195580 
	C153.417282,88.562782 153.076416,86.945869 152.531906,83.871780 
	C150.275696,100.638390 148.212540,115.970497 146.081390,131.735748 
z"/>
<path fill="#000000" opacity="1.000000" stroke="none" 
	d="
M88.556190,185.417374 
	C83.884026,179.945328 79.863754,174.431946 76.294426,168.600296 
	C75.276512,166.937210 73.729515,164.889557 75.626701,163.189194 
	C77.881966,161.167892 79.207527,163.801529 80.469666,165.043945 
	C95.332191,179.674393 112.231613,190.850433 132.793228,195.643539 
	C158.149185,201.554230 181.224457,195.667770 202.615570,181.623978 
	C204.145615,180.619446 205.612503,179.519165 207.133224,178.499893 
	C208.640686,177.489471 210.219986,176.059631 211.981476,177.876968 
	C213.538925,179.483810 213.669983,181.542557 212.593491,183.433487 
	C211.530334,185.300980 210.294769,187.114304 208.884430,188.733261 
	C196.057846,203.457123 180.699921,214.124374 161.083755,217.428741 
	C141.247910,220.770111 123.526390,215.317245 107.576691,203.517532 
	C100.596390,198.353470 94.187737,192.538635 88.556190,185.417374 
z"/>
<path fill="#000000" opacity="1.000000" stroke="none" 
	d="
M96.499802,59.770157 
	C110.103119,59.456482 115.520721,64.252434 117.383331,77.441002 
	C119.141457,89.889801 117.985062,102.386742 118.257301,114.858147 
	C118.363037,119.701851 118.420998,124.486313 119.941101,129.161819 
	C120.391251,130.546402 120.588409,132.159897 120.367188,133.585587 
	C119.905075,136.563705 118.070709,139.209152 115.330353,139.873016 
	C112.326591,140.600708 112.182610,137.144974 111.103424,135.242737 
	C110.708557,134.546707 110.379829,133.813141 109.761009,132.577881 
	C107.858322,134.663284 106.343918,136.550995 104.599663,138.194855 
	C97.619331,144.773376 88.326813,143.420959 84.328033,134.755920 
	C79.329704,123.924973 79.350723,112.743179 84.692749,101.977638 
	C88.340637,94.626213 94.480240,92.130341 103.772285,94.137444 
	C107.820999,95.011978 109.009628,93.869820 108.728645,90.086182 
	C108.495583,86.947884 108.880394,83.805191 107.981644,80.667503 
	C105.905785,73.420372 101.511963,70.964836 94.418556,73.411446 
	C93.481010,73.734825 92.642403,74.381943 91.692909,74.626602 
	C89.254555,75.254906 87.473412,79.432442 84.433632,76.417007 
	C82.476692,74.475746 83.883713,67.019150 86.380173,64.829758 
	C89.172157,62.381195 92.480789,60.804760 96.499802,59.770157 
M103.473213,127.006516 
	C108.454491,122.128891 108.951859,115.930588 108.697998,109.480461 
	C108.621582,107.538971 107.643753,106.485619 105.943100,105.782310 
	C98.322411,102.630753 92.076286,106.207451 91.223602,114.363503 
	C90.983971,116.655678 90.987518,119.009628 91.198326,121.305977 
	C91.932915,129.307678 95.713318,131.260513 103.473213,127.006516 
z"/>
<path fill="#000000" opacity="1.000000" stroke="none" 
	d="
M206.919144,128.063705 
	C213.045120,121.468315 212.172684,113.825096 205.081726,109.187447 
	C203.829742,108.368629 202.513016,107.644867 201.202499,106.920044 
	C186.815628,98.962944 182.184235,81.258743 190.804672,67.144463 
	C195.828659,58.918671 207.128494,56.979458 214.704102,63.043003 
	C218.090408,65.753410 218.842957,70.579552 216.663925,75.768097 
	C214.793701,76.611626 213.582169,75.134293 212.177048,74.405357 
	C205.740173,71.066116 199.944092,71.671715 197.403503,75.982529 
	C194.363174,81.141335 196.421661,88.127800 202.162094,91.965179 
	C203.543228,92.888435 204.959564,93.812767 206.474411,94.473724 
	C219.124313,99.993057 221.222275,110.972069 219.973328,122.731873 
	C219.643600,125.836578 218.832626,128.914276 217.442535,131.821777 
	C212.150497,142.890381 199.592926,146.015396 189.747940,138.631927 
	C186.768555,136.397476 185.098251,130.345901 186.406433,126.854111 
	C187.579636,123.722588 189.350861,125.090508 191.107300,126.130600 
	C195.973114,129.011948 200.923965,131.259109 206.919144,128.063705 
z"/>
<path fill="#000000" opacity="1.000000" stroke="none" 
	d="
M197.860260,168.178772 
	C202.789566,159.677597 214.272308,155.764771 222.730698,159.249924 
	C225.541733,160.408157 227.097839,162.538895 227.060776,165.385712 
	C226.881241,179.178802 224.685455,192.545929 217.902390,204.816193 
	C217.350677,205.814240 216.636093,206.817230 215.164047,206.855118 
	C212.962143,205.615204 214.071609,203.778732 214.420456,202.072037 
	C216.083435,193.935684 218.354340,185.887436 218.652451,177.536697 
	C218.887009,170.965668 217.052795,169.201569 210.410934,169.400436 
	C207.436539,169.489487 204.468124,170.051743 201.516327,170.520874 
	C199.712280,170.807556 198.117859,170.996002 197.860260,168.178772 
z"/>
</svg>