<svg version="1.1" id="Layer_1" xmlns="http://www.w3.org/2000/svg" xmlns:xlink="http://www.w3.org/1999/xlink" x="0px" y="0px"
	 width="100%" viewBox="0 0 300 275" enable-background="new 0 0 300 275" xml:space="preserve">
<path fill="#FEFEFE" opacity="1.000000" stroke="none" 
	d="
M301.000000,157.000000 
	C301.000000,196.634338 301.000000,236.268677 301.000000,275.951508 
	C201.113861,275.951508 101.227676,275.951508 1.000000,275.951508 
	C1.000000,236.979767 1.000000,197.958542 1.387738,158.568192 
	C3.063848,164.210068 3.980498,170.329773 5.701208,176.214355 
	C16.486773,213.099518 39.598034,240.280121 72.629425,259.072449 
	C81.948143,264.374084 92.279289,267.983276 102.344513,271.852509 
	C108.252716,274.123749 113.427284,271.699646 113.685577,266.748596 
	C114.141464,258.009827 113.813210,249.230133 113.813210,240.960480 
	C105.486511,240.960480 97.833214,241.353104 90.235016,240.873199 
	C77.145813,240.046478 67.162987,234.537445 61.892353,221.603104 
	C58.784176,213.975540 53.737106,207.583771 46.168980,203.446823 
	C43.908150,202.210999 42.307796,199.766861 40.404839,197.876328 
	C40.578556,197.344055 40.752270,196.811783 40.925987,196.279510 
	C43.449806,196.047256 46.029316,195.361343 48.487587,195.663086 
	C57.971195,196.827164 65.331787,201.736191 70.520454,209.631180 
	C80.454536,224.746719 93.111565,227.303345 110.695915,222.121033 
	C112.081978,221.712540 113.716942,220.573898 114.313263,219.331589 
	C116.975914,213.784531 119.303383,208.076599 121.729202,202.479172 
	C117.331680,201.738358 112.117325,200.950058 106.938461,199.973511 
	C58.718513,190.881012 38.919563,138.452789 68.945084,99.593987 
	C69.757462,98.542618 70.099052,96.479828 69.673332,95.222946 
	C66.553497,86.012085 66.980377,76.898903 69.804504,67.748329 
	C72.096863,60.320751 73.218079,59.103687 80.799217,61.603321 
	C90.688225,64.863907 100.130791,69.458664 109.868347,73.212402 
	C112.303696,74.151199 115.296165,74.846321 117.755074,74.330521 
	C135.880569,70.528389 154.215271,69.153748 172.357849,72.544884 
	C183.317459,74.593407 192.587036,73.991966 202.479294,68.298920 
	C209.442429,64.291603 218.072983,63.077221 226.076981,61.091194 
	C227.330780,60.780094 230.069946,62.650742 230.666397,64.108322 
	C234.746948,74.080101 235.865646,84.321198 232.462189,94.822731 
	C232.031067,96.152992 232.008270,98.369011 232.810471,99.232773 
	C245.258163,112.635666 248.153503,128.581345 246.050949,146.112762 
	C243.272644,169.278748 232.794464,186.885300 210.112045,195.107162 
	C200.230362,198.689041 189.789566,200.728409 179.401367,203.522446 
	C188.239319,211.629532 188.408493,222.904739 188.257278,234.327835 
	C188.129349,243.991089 188.194290,253.657623 188.244217,263.322327 
	C188.285110,271.241028 192.307938,274.316956 199.876083,271.836456 
	C206.186264,269.768250 212.538162,267.609100 218.494324,264.714050 
	C260.046387,244.517273 288.144653,213.175476 298.454529,167.281555 
	C299.228210,163.837555 300.148102,160.426422 301.000000,157.000000 
z"/>
<path fill="#020202" opacity="1.000000" stroke="none" 
	d="
M301.000000,156.531342 
	C300.148102,160.426422 299.228210,163.837555 298.454529,167.281555 
	C288.144653,213.175476 260.046387,244.517273 218.494324,264.714050 
	C212.538162,267.609100 206.186264,269.768250 199.876083,271.836456 
	C192.307938,274.316956 188.285110,271.241028 188.244217,263.322327 
	C188.194290,253.657623 188.129349,243.991089 188.257278,234.327835 
	C188.408493,222.904739 188.239319,211.629532 179.401367,203.522446 
	C189.789566,200.728409 200.230362,198.689041 210.112045,195.107162 
	C232.794464,186.885300 243.272644,169.278748 246.050949,146.112762 
	C248.153503,128.581345 245.258163,112.635666 232.810471,99.232773 
	C232.008270,98.369011 232.031067,96.152992 232.462189,94.822731 
	C235.865646,84.321198 234.746948,74.080101 230.666397,64.108322 
	C230.069946,62.650742 227.330780,60.780094 226.076981,61.091194 
	C218.072983,63.077221 209.442429,64.291603 202.479294,68.298920 
	C192.587036,73.991966 183.317459,74.593407 172.357849,72.544884 
	C154.215271,69.153748 135.880569,70.528389 117.755074,74.330521 
	C115.296165,74.846321 112.303696,74.151199 109.868347,73.212402 
	C100.130791,69.458664 90.688225,64.863907 80.799217,61.603321 
	C73.218079,59.103687 72.096863,60.320751 69.804504,67.748329 
	C66.980377,76.898903 66.553497,86.012085 69.673332,95.222946 
	C70.099052,96.479828 69.757462,98.542618 68.945084,99.593987 
	C38.919563,138.452789 58.718513,190.881012 106.938461,199.973511 
	C112.117325,200.950058 117.331680,201.738358 121.729202,202.479172 
	C119.303383,208.076599 116.975914,213.784531 114.313263,219.331589 
	C113.716942,220.573898 112.081978,221.712540 110.695915,222.121033 
	C93.111565,227.303345 80.454536,224.746719 70.520454,209.631180 
	C65.331787,201.736191 57.971195,196.827164 48.487587,195.663086 
	C46.029316,195.361343 43.449806,196.047256 40.925987,196.279510 
	C40.752270,196.811783 40.578556,197.344055 40.404839,197.876328 
	C42.307796,199.766861 43.908150,202.210999 46.168980,203.446823 
	C53.737106,207.583771 58.784176,213.975540 61.892353,221.603104 
	C67.162987,234.537445 77.145813,240.046478 90.235016,240.873199 
	C97.833214,241.353104 105.486511,240.960480 113.813210,240.960480 
	C113.813210,249.230133 114.141464,258.009827 113.685577,266.748596 
	C113.427284,271.699646 108.252716,274.123749 102.344513,271.852509 
	C92.279289,267.983276 81.948143,264.374084 72.629425,259.072449 
	C39.598034,240.280121 16.486773,213.099518 5.701208,176.214355 
	C3.980498,170.329773 3.063848,164.210068 1.387738,158.099533 
	C1.000000,147.312439 1.000000,136.624878 1.387524,125.383682 
	C2.134812,123.382080 2.587895,121.950180 2.840668,120.483765 
	C8.813787,85.831528 26.142670,57.629002 54.150314,37.083023 
	C107.793121,-2.268516 165.740402,-6.786252 224.964355,22.521490 
	C265.506805,42.584438 291.123657,75.803879 299.302277,121.218445 
	C299.598083,122.860931 300.422150,124.408302 301.000000,126.000000 
	C301.000000,136.020889 301.000000,146.041794 301.000000,156.531342 
z"/>
<path fill="#FDFDFD" opacity="1.000000" stroke="none" 
	d="
M301.000000,125.531342 
	C300.422150,124.408302 299.598083,122.860931 299.302277,121.218445 
	C291.123657,75.803879 265.506805,42.584438 224.964355,22.521490 
	C165.740402,-6.786252 107.793121,-2.268516 54.150314,37.083023 
	C26.142670,57.629002 8.813787,85.831528 2.840668,120.483765 
	C2.587895,121.950180 2.134812,123.382080 1.387524,124.915024 
	C1.000000,83.699638 1.000000,42.399269 1.000000,1.049453 
	C100.887245,1.049453 200.774521,1.049453 301.000000,1.049453 
	C301.000000,42.353615 301.000000,83.708145 301.000000,125.531342 
z"/>
</svg>