<svg version="1.1" id="Layer_1" xmlns="http://www.w3.org/2000/svg" xmlns:xlink="http://www.w3.org/1999/xlink" x="0px" y="0px"
	 width="100%" viewBox="0 0 300 275" enable-background="new 0 0 300 275" xml:space="preserve">
<path fill="#F05135" opacity="1.000000" stroke="none" 
	d="
M143.000000,0.999998 
	C147.024551,1.000000 151.049088,1.000000 155.692108,1.319337 
	C160.046951,4.047004 164.213486,5.983200 167.453995,8.935752 
	C205.250488,43.373585 242.979950,77.886063 280.538422,112.583069 
	C287.776703,119.269867 294.200470,126.838287 301.000000,134.000000 
	C301.000000,137.030594 301.000000,140.061188 300.675049,143.662430 
	C297.639587,147.552429 295.284912,151.258026 292.164642,154.132492 
	C252.880585,190.321655 213.545944,226.456696 174.051102,262.415405 
	C168.507034,267.463074 162.039871,271.496887 156.000000,276.000000 
	C152.638718,276.000000 149.277420,276.000000 145.347900,275.669128 
	C142.031372,273.504150 138.992004,271.989258 136.578323,269.788208 
	C99.345360,235.835754 62.170986,201.818893 25.041042,167.753723 
	C16.911612,160.295303 9.007746,152.591049 1.000001,145.000000 
	C1.000000,141.307098 1.000000,137.614182 1.301644,133.289703 
	C3.907138,129.711304 5.861181,126.386864 8.570118,123.877289 
	C30.411222,103.643585 52.388058,83.556328 74.337730,63.439930 
	C81.645035,56.742943 88.993935,50.091343 96.513870,43.245998 
	C107.506630,53.316879 118.098038,62.914124 128.492630,72.720009 
	C129.447845,73.621124 129.659180,75.962555 129.344635,77.451073 
	C127.439133,86.468903 130.832809,94.875183 138.607132,99.908722 
	C139.926056,100.762672 141.058228,101.905067 142.207489,103.070633 
	C142.245255,103.531982 142.352234,103.836891 142.621979,104.577393 
	C142.822037,127.974670 142.865540,150.936356 142.875198,173.898071 
	C142.875610,174.869019 142.561752,175.840088 142.141205,177.028717 
	C141.569717,177.555862 141.251312,177.865402 140.732056,178.430908 
	C132.086639,183.768127 127.423729,190.846100 129.172546,201.031219 
	C130.565414,209.143250 137.901718,215.807968 147.059601,217.658798 
	C157.496796,219.768143 168.711823,214.279449 172.831955,205.045654 
	C176.942810,195.832672 173.764984,186.506699 164.190353,179.616913 
	C163.672440,179.244247 163.269363,178.711990 162.846375,178.207977 
	C162.879913,178.161926 162.750931,178.191956 162.431366,177.893692 
	C162.025696,165.160675 161.862717,152.725830 161.876755,140.291199 
	C161.888931,129.521912 162.101898,118.752861 162.490677,107.850708 
	C163.213730,107.101837 163.672211,106.485954 164.446869,105.982277 
	C173.247253,113.831863 181.682816,121.623817 190.251617,129.266373 
	C192.270782,131.067291 192.490311,132.685928 191.876663,135.288361 
	C188.992950,147.518311 197.563812,158.823029 210.900772,160.763336 
	C223.410446,162.583313 235.994385,153.296799 236.901428,141.575790 
	C237.929733,128.287735 225.342606,117.153687 211.257812,119.287216 
	C207.526825,119.852379 205.059509,119.034782 202.400421,116.504730 
	C194.082169,108.590134 185.583282,100.861206 177.018280,93.212776 
	C174.594116,91.048035 173.364883,89.105522 174.098740,85.556694 
	C175.391937,79.302895 173.320419,73.685844 168.934036,69.065865 
	C163.374390,63.210136 156.455215,61.281471 148.502670,61.934532 
	C146.264847,62.118301 143.277969,61.774010 141.733673,60.419205 
	C131.477081,51.421040 121.512703,42.089413 111.481651,32.835499 
	C110.928757,32.325443 110.629013,31.540972 110.124519,30.747538 
	C113.367737,27.744802 116.381897,24.890703 119.464500,22.112539 
	C127.293320,15.056890 135.152786,8.035252 143.000000,0.999998 
z"/>
<path fill="#FFFDFC" opacity="1.000000" stroke="none" 
	d="
M162.226105,107.983704 
	C162.101898,118.752861 161.888931,129.521912 161.876755,140.291199 
	C161.862717,152.725830 162.025696,165.160675 162.453400,177.902679 
	C162.794983,178.209930 162.812820,178.254028 162.812820,178.254028 
	C163.269363,178.711990 163.672440,179.244247 164.190353,179.616913 
	C173.764984,186.506699 176.942810,195.832672 172.831955,205.045654 
	C168.711823,214.279449 157.496796,219.768143 147.059601,217.658798 
	C137.901718,215.807968 130.565414,209.143250 129.172546,201.031219 
	C127.423729,190.846100 132.086639,183.768127 141.111801,178.368988 
	C141.926376,177.637787 142.160339,177.224457 142.394302,176.811111 
	C142.561752,175.840088 142.875610,174.869019 142.875198,173.898071 
	C142.865540,150.936356 142.822037,127.974670 142.690140,104.253380 
	C142.489258,103.300591 142.382965,103.107399 142.276688,102.914200 
	C141.058228,101.905067 139.926056,100.762672 138.607132,99.908722 
	C130.832809,94.875183 127.439133,86.468903 129.344635,77.451073 
	C129.659180,75.962555 129.447845,73.621124 128.492630,72.720009 
	C118.098038,62.914124 107.506630,53.316879 96.513870,43.245998 
	C88.993935,50.091343 81.645035,56.742943 74.337730,63.439930 
	C52.388058,83.556328 30.411222,103.643585 8.570118,123.877289 
	C5.861181,126.386864 3.907138,129.711304 1.301644,132.829071 
	C1.000000,89.070343 1.000000,45.140686 1.000000,1.000000 
	C48.020683,1.000000 95.041687,1.000000 142.531342,0.999998 
	C135.152786,8.035252 127.293320,15.056890 119.464500,22.112539 
	C116.381897,24.890703 113.367737,27.744802 110.124519,30.747538 
	C110.629013,31.540972 110.928757,32.325443 111.481651,32.835499 
	C121.512703,42.089413 131.477081,51.421040 141.733673,60.419205 
	C143.277969,61.774010 146.264847,62.118301 148.502670,61.934532 
	C156.455215,61.281471 163.374390,63.210136 168.934036,69.065865 
	C173.320419,73.685844 175.391937,79.302895 174.098740,85.556694 
	C173.364883,89.105522 174.594116,91.048035 177.018280,93.212776 
	C185.583282,100.861206 194.082169,108.590134 202.400421,116.504730 
	C205.059509,119.034782 207.526825,119.852379 211.257812,119.287216 
	C225.342606,117.153687 237.929733,128.287735 236.901428,141.575790 
	C235.994385,153.296799 223.410446,162.583313 210.900772,160.763336 
	C197.563812,158.823029 188.992950,147.518311 191.876663,135.288361 
	C192.490311,132.685928 192.270782,131.067291 190.251617,129.266373 
	C181.682816,121.623817 173.247253,113.831863 164.430695,105.999229 
	C164.098373,105.903976 164.138336,105.892593 163.997192,105.589218 
	C163.303467,105.528908 162.750900,105.771965 162.096893,106.339149 
	C162.072342,107.103416 162.149231,107.543564 162.226105,107.983704 
z"/>
<path fill="#FFFEFE" opacity="1.000000" stroke="none" 
	d="
M301.000000,133.531342 
	C294.200470,126.838287 287.776703,119.269867 280.538422,112.583069 
	C242.979950,77.886063 205.250488,43.373585 167.453995,8.935752 
	C164.213486,5.983200 160.046951,4.047004 156.155289,1.319337 
	C204.257172,1.000000 252.514343,1.000000 301.000000,1.000000 
	C301.000000,45.020630 301.000000,89.041656 301.000000,133.531342 
z"/>
<path fill="#FFFEFE" opacity="1.000000" stroke="none" 
	d="
M1.000001,145.468658 
	C9.007746,152.591049 16.911612,160.295303 25.041042,167.753723 
	C62.170986,201.818893 99.345360,235.835754 136.578323,269.788208 
	C138.992004,271.989258 142.031372,273.504150 144.889832,275.669128 
	C97.076462,276.000000 49.152920,276.000000 1.000000,276.000000 
	C1.000000,232.646042 1.000000,189.291687 1.000001,145.468658 
z"/>
<path fill="#FFFEFE" opacity="1.000000" stroke="none" 
	d="
M156.468658,276.000000 
	C162.039871,271.496887 168.507034,267.463074 174.051102,262.415405 
	C213.545944,226.456696 252.880585,190.321655 292.164642,154.132492 
	C295.284912,151.258026 297.639587,147.552429 300.675049,144.116547 
	C301.000000,187.930420 301.000000,231.860840 301.000000,276.000000 
	C252.979309,276.000000 204.958313,276.000000 156.468658,276.000000 
z"/>
<path fill="#EF4929" opacity="1.000000" stroke="none" 
	d="
M162.490692,107.850708 
	C162.149231,107.543564 162.072342,107.103416 162.420700,106.337433 
	C163.276749,105.971931 163.707535,105.932259 164.138336,105.892593 
	C164.138336,105.892593 164.098373,105.903976 164.114532,105.887024 
	C163.672211,106.485954 163.213730,107.101837 162.490692,107.850708 
z"/>
<path fill="#EF4725" opacity="1.000000" stroke="none" 
	d="
M142.207489,103.070633 
	C142.382965,103.107399 142.489258,103.300591 142.527374,103.817795 
	C142.352234,103.836891 142.245255,103.531982 142.207489,103.070633 
z"/>
<path fill="#EF4725" opacity="1.000000" stroke="none" 
	d="
M142.141205,177.028717 
	C142.160339,177.224457 141.926376,177.637787 141.312653,178.113037 
	C141.251312,177.865402 141.569717,177.555862 142.141205,177.028717 
z"/>
<path fill="#EF4929" opacity="1.000000" stroke="none" 
	d="
M162.772949,178.200943 
	C162.750931,178.191956 162.879913,178.161926 162.846375,178.207977 
	C162.812820,178.254028 162.794983,178.209930 162.772949,178.200943 
z"/>
<path fill="#F05135" opacity="1.000000" stroke="none" 
	d="
M163.997192,105.589218 
	C163.707535,105.932259 163.276749,105.971931 162.522125,106.013306 
	C162.750900,105.771965 163.303467,105.528908 163.997192,105.589218 
z"/>
</svg>