<svg version="1.1" id="Layer_1" xmlns="http://www.w3.org/2000/svg" xmlns:xlink="http://www.w3.org/1999/xlink" x="0px" y="0px"
	 width="100%" viewBox="0 0 300 275" enable-background="new 0 0 300 275" xml:space="preserve">
<path fill="#FEFEFE" opacity="1.000000" stroke="none" 
	d="
M170.000000,0.999999 
	C213.630936,1.000000 257.261871,1.000000 300.946411,1.000000 
	C300.946411,92.555893 300.946411,184.111816 300.946411,276.000000 
	C258.313019,276.000000 215.625168,276.000000 172.477371,275.721863 
	C171.998840,275.259094 171.980255,275.074463 172.356873,274.848206 
	C173.790665,274.637451 174.829224,274.468384 176.228912,274.449402 
	C178.230530,274.202515 179.871033,273.805481 181.901550,273.412262 
	C183.826813,273.147491 185.362045,272.878876 187.218750,272.722473 
	C188.350510,272.511322 189.160782,272.187958 190.298096,271.867065 
	C191.046753,271.764709 191.468353,271.659943 192.225220,271.648010 
	C193.346146,271.383362 194.131805,271.025848 195.256195,270.665894 
	C196.018204,270.513550 196.441467,270.363678 197.173615,270.358795 
	C198.462570,270.106140 199.442657,269.708435 200.795319,269.282898 
	C206.242081,267.327332 211.382416,265.555847 216.377411,263.441101 
	C228.736588,258.208618 240.507172,251.991364 250.379150,242.148102 
	C254.999481,237.913712 259.485107,233.967712 263.525146,229.608734 
	C279.661499,212.198395 287.907928,190.805786 292.734924,168.152252 
	C296.257141,151.622116 295.851685,134.734756 293.296661,117.929688 
	C292.642792,113.629021 291.300232,112.144814 286.758148,112.163681 
	C243.259720,112.344337 199.760239,112.271713 156.261047,112.271721 
	C154.654968,112.271721 153.048874,112.271729 151.397873,112.271729 
	C151.397873,130.529007 151.397873,148.082352 151.397873,166.239685 
	C178.170593,166.239685 204.551682,166.239685 232.564789,166.239685 
	C229.479309,173.686859 227.976334,180.916336 223.940323,186.217148 
	C217.785751,194.300369 209.879181,201.049622 202.365051,208.487213 
	C195.182190,211.651901 188.613266,215.719299 181.471115,217.548737 
	C158.398148,223.458847 135.566528,223.789795 113.231369,213.334229 
	C95.131828,204.861450 80.790993,192.762619 71.576157,174.889862 
	C69.980804,171.795547 68.469131,168.658096 66.925140,165.200073 
	C65.930611,161.906311 64.663116,159.013824 63.973869,155.989532 
	C60.515507,140.814926 61.357388,125.889282 67.236115,111.048233 
	C85.351273,61.230499 157.496750,34.113297 209.082977,75.601952 
	C222.876663,62.931076 236.752487,50.184742 250.854202,37.230904 
	C249.561035,35.836269 248.883011,34.923218 248.033661,34.215847 
	C230.732269,19.806637 210.833603,10.621573 189.125443,5.173795 
	C182.799545,3.586278 176.377808,2.380667 170.000000,0.999999 
z"/>
<path fill="#EA4537" opacity="1.000000" stroke="none" 
	d="
M169.531357,0.999999 
	C176.377808,2.380667 182.799545,3.586278 189.125443,5.173795 
	C210.833603,10.621573 230.732269,19.806637 248.033661,34.215847 
	C248.883011,34.923218 249.561035,35.836269 250.854202,37.230904 
	C236.752487,50.184742 222.876663,62.931076 209.082977,75.601952 
	C157.496750,34.113297 85.351273,61.230499 66.878159,110.962051 
	C65.118011,110.533669 63.879837,110.059715 62.835110,109.314545 
	C47.669003,98.497139 32.528816,87.643387 17.443350,76.430237 
	C30.344666,52.287315 49.185139,34.347897 72.602776,21.461538 
	C82.971481,15.755799 94.482170,12.125314 105.774506,7.679261 
	C106.761124,7.439712 107.447685,7.073670 108.433456,6.559295 
	C109.171288,6.355454 109.609909,6.299947 110.243973,6.463685 
	C111.324409,6.240409 112.209404,5.797888 113.401947,5.253437 
	C114.138824,5.115804 114.568161,5.080103 115.146141,5.255183 
	C115.903687,5.139201 116.512573,4.812437 117.483032,4.327308 
	C119.408241,3.995672 120.971878,3.822401 122.925751,3.770587 
	C124.921181,3.489424 126.526375,3.086802 128.449219,2.563069 
	C129.217941,2.404675 129.669022,2.367395 130.427414,2.575749 
	C135.489822,2.214256 140.244904,1.607128 145.000000,1.000000 
	C153.020905,1.000000 161.041809,1.000000 169.531357,0.999999 
z"/>
<path fill="#36A955" opacity="1.000000" stroke="none" 
	d="
M66.918808,165.540573 
	C68.469131,168.658096 69.980804,171.795547 71.576157,174.889862 
	C80.790993,192.762619 95.131828,204.861450 113.231369,213.334229 
	C135.566528,223.789795 158.398148,223.458847 181.471115,217.548737 
	C188.613266,215.719299 195.182190,211.651901 202.629761,208.768204 
	C209.784088,213.688873 216.277908,218.512817 222.871124,223.196854 
	C231.887711,229.602524 240.979874,235.901794 250.039627,242.246674 
	C240.507172,251.991364 228.736588,258.208618 216.377411,263.441101 
	C211.382416,265.555847 206.242081,267.327332 200.463562,269.177094 
	C198.794403,269.470703 197.829575,269.842255 196.864731,270.213776 
	C196.441467,270.363678 196.018204,270.513550 195.056717,270.460815 
	C193.642334,270.690521 192.766144,271.122833 191.889954,271.555145 
	C191.468353,271.659943 191.046753,271.764709 190.104004,271.644104 
	C188.687668,271.815918 187.792480,272.213104 186.897278,272.610291 
	C185.362045,272.878876 183.826813,273.147491 181.509338,273.277161 
	C179.107315,273.525269 177.487549,273.912292 175.867783,274.299316 
	C174.829224,274.468384 173.790665,274.637451 172.079834,274.559906 
	C166.938385,274.875519 162.469193,275.437775 158.000000,276.000000 
	C153.975449,276.000000 149.950912,276.000000 145.186905,275.728973 
	C139.665405,275.206451 134.883362,274.954956 129.768188,274.681427 
	C129.005264,274.553558 128.575439,274.447693 127.955734,274.030029 
	C126.018982,273.613495 124.272095,273.508789 122.132889,273.401276 
	C120.203697,273.106659 118.666840,272.814850 117.065247,272.270935 
	C116.333054,272.008148 115.665604,271.997406 114.675476,271.976318 
	C113.935112,271.867004 113.517426,271.768097 113.025986,271.380188 
	C111.980827,270.991119 111.009422,270.890991 109.708267,270.784210 
	C108.967857,270.626434 108.557205,270.475281 107.988640,270.046570 
	C107.047783,269.674744 106.264839,269.580475 105.102783,269.448578 
	C100.858582,267.973724 96.999252,266.520782 93.127449,265.101898 
	C68.233849,255.979263 47.313713,241.217438 30.851063,220.442841 
	C25.854456,214.137512 21.872936,207.027756 17.700504,200.034882 
	C28.052774,192.465012 38.060646,185.046982 48.235703,177.865814 
	C54.328262,173.565918 60.682304,169.636520 66.918808,165.540573 
z"/>
<path fill="#FABC07" opacity="1.000000" stroke="none" 
	d="
M66.925140,165.200073 
	C60.682304,169.636520 54.328262,173.565918 48.235703,177.865814 
	C38.060646,185.046982 28.052774,192.465012 17.435085,199.852264 
	C13.520185,192.196457 9.727327,184.621063 6.894012,176.702362 
	C4.376430,169.666077 2.923086,162.248993 1.000000,155.000000 
	C1.000000,145.979111 1.000000,136.958206 1.344620,127.227592 
	C2.178971,108.448166 8.637290,92.262344 17.382429,76.798332 
	C32.528816,87.643387 47.669003,98.497139 62.835110,109.314545 
	C63.879837,110.059715 65.118011,110.533669 66.624176,111.219940 
	C61.357388,125.889282 60.515507,140.814926 63.973869,155.989532 
	C64.663116,159.013824 65.930611,161.906311 66.925140,165.200073 
z"/>
<path fill="#FEFDFC" opacity="1.000000" stroke="none" 
	d="
M17.443350,76.430237 
	C8.637290,92.262344 2.178971,108.448166 1.344620,126.758934 
	C1.000000,85.072166 1.000000,43.144329 1.000000,1.000000 
	C43.687317,1.000000 86.375000,1.000000 129.548645,1.333678 
	C130.063095,1.888276 130.091599,2.109195 130.120102,2.330114 
	C129.669022,2.367395 129.217941,2.404675 128.087341,2.418370 
	C125.783714,2.812900 124.159622,3.231016 122.535522,3.649131 
	C120.971878,3.822401 119.408241,3.995672 117.199875,4.209274 
	C116.035934,4.514539 115.516716,4.779471 114.997490,5.044402 
	C114.568161,5.080103 114.138824,5.115804 113.064056,5.175662 
	C111.628593,5.548026 110.838570,5.896233 110.048538,6.244440 
	C109.609909,6.299947 109.171288,6.355454 108.147354,6.437601 
	C106.866188,6.827084 106.170319,7.189927 105.474457,7.552769 
	C94.482170,12.125314 82.971481,15.755799 72.602776,21.461538 
	C49.185139,34.347897 30.344666,52.287315 17.443350,76.430237 
z"/>
<path fill="#FDFEFD" opacity="1.000000" stroke="none" 
	d="
M1.000000,155.468658 
	C2.923086,162.248993 4.376430,169.666077 6.894012,176.702362 
	C9.727327,184.621063 13.520185,192.196457 17.161064,200.103821 
	C21.872936,207.027756 25.854456,214.137512 30.851063,220.442841 
	C47.313713,241.217438 68.233849,255.979263 93.127449,265.101898 
	C96.999252,266.520782 100.858582,267.973724 105.282791,269.702911 
	C106.610123,270.104675 107.378342,270.214417 108.146553,270.324158 
	C108.557205,270.475281 108.967857,270.626434 109.909233,271.062134 
	C111.326553,271.454163 112.213142,271.561676 113.099739,271.669159 
	C113.517426,271.768097 113.935112,271.867004 114.876389,272.209167 
	C115.976639,272.475952 116.553314,272.499481 117.129982,272.523010 
	C118.666840,272.814850 120.203697,273.106659 122.368774,273.684326 
	C124.713203,274.094086 126.429413,274.217957 128.145615,274.341858 
	C128.575439,274.447693 129.005264,274.553558 129.727829,275.004517 
	C130.013718,275.566437 130.006851,275.783234 130.000000,276.000000 
	C87.075371,276.000000 44.150734,276.000000 1.000000,276.000000 
	C1.000000,235.979385 1.000000,195.958359 1.000000,155.468658 
z"/>
<path fill="#E97167" opacity="1.000000" stroke="none" 
	d="
M130.427414,2.575749 
	C130.091599,2.109195 130.063095,1.888276 130.017303,1.333678 
	C134.689255,1.000000 139.378510,1.000000 144.533875,1.000000 
	C140.244904,1.607128 135.489822,2.214256 130.427414,2.575749 
z"/>
<path fill="#6CBC82" opacity="1.000000" stroke="none" 
	d="
M130.466125,276.000000 
	C130.006851,275.783234 130.013718,275.566437 130.060944,275.026550 
	C134.883362,274.954956 139.665405,275.206451 144.723724,275.728973 
	C140.310745,276.000000 135.621490,276.000000 130.466125,276.000000 
z"/>
<path fill="#67BA7D" opacity="1.000000" stroke="none" 
	d="
M158.464645,276.000000 
	C162.469193,275.437775 166.938385,274.875519 171.684631,274.601562 
	C171.980255,275.074463 171.998840,275.259094 172.008713,275.721863 
	C167.643097,276.000000 163.286194,276.000000 158.464645,276.000000 
z"/>
<path fill="#4486F4" opacity="1.000000" stroke="none" 
	d="
M250.379150,242.148102 
	C240.979874,235.901794 231.887711,229.602524 222.871124,223.196854 
	C216.277908,218.512817 209.784088,213.688873 202.981247,208.646286 
	C209.879181,201.049622 217.785751,194.300369 223.940323,186.217148 
	C227.976334,180.916336 229.479309,173.686859 232.564789,166.239685 
	C204.551682,166.239685 178.170593,166.239685 151.397873,166.239685 
	C151.397873,148.082352 151.397873,130.529007 151.397873,112.271729 
	C153.048874,112.271729 154.654968,112.271721 156.261047,112.271721 
	C199.760239,112.271713 243.259720,112.344337 286.758148,112.163681 
	C291.300232,112.144814 292.642792,113.629021 293.296661,117.929688 
	C295.851685,134.734756 296.257141,151.622116 292.734924,168.152252 
	C287.907928,190.805786 279.661499,212.198395 263.525146,229.608734 
	C259.485107,233.967712 254.999481,237.913712 250.379150,242.148102 
z"/>
<path fill="#67BA7D" opacity="1.000000" stroke="none" 
	d="
M176.228912,274.449402 
	C177.487549,273.912292 179.107315,273.525269 181.119308,273.273346 
	C179.871033,273.805481 178.230530,274.202515 176.228912,274.449402 
z"/>
<path fill="#67BA7D" opacity="1.000000" stroke="none" 
	d="
M197.173615,270.358795 
	C197.829575,269.842255 198.794403,269.470703 200.090973,269.204956 
	C199.442657,269.708435 198.462570,270.106140 197.173615,270.358795 
z"/>
<path fill="#67BA7D" opacity="1.000000" stroke="none" 
	d="
M192.225220,271.648010 
	C192.766144,271.122833 193.642334,270.690521 194.717987,270.463257 
	C194.131805,271.025848 193.346146,271.383362 192.225220,271.648010 
z"/>
<path fill="#67BA7D" opacity="1.000000" stroke="none" 
	d="
M187.218750,272.722473 
	C187.792480,272.213104 188.687668,271.815918 189.776947,271.641663 
	C189.160782,272.187958 188.350510,272.511322 187.218750,272.722473 
z"/>
<path fill="#E97167" opacity="1.000000" stroke="none" 
	d="
M122.925751,3.770588 
	C124.159622,3.231016 125.783714,2.812900 127.769699,2.539482 
	C126.526375,3.086802 124.921181,3.489424 122.925751,3.770588 
z"/>
<path fill="#E97167" opacity="1.000000" stroke="none" 
	d="
M110.243973,6.463685 
	C110.838570,5.896233 111.628593,5.548026 112.756516,5.277593 
	C112.209404,5.797888 111.324409,6.240409 110.243973,6.463685 
z"/>
<path fill="#E97167" opacity="1.000000" stroke="none" 
	d="
M105.774506,7.679261 
	C106.170319,7.189927 106.866188,6.827084 107.848145,6.585935 
	C107.447685,7.073670 106.761124,7.439712 105.774506,7.679261 
z"/>
<path fill="#E97167" opacity="1.000000" stroke="none" 
	d="
M115.146141,5.255184 
	C115.516716,4.779471 116.035934,4.514539 116.838318,4.367640 
	C116.512573,4.812437 115.903687,5.139201 115.146141,5.255184 
z"/>
<path fill="#6CBC82" opacity="1.000000" stroke="none" 
	d="
M127.955734,274.030029 
	C126.429413,274.217957 124.713203,274.094086 122.761108,273.687134 
	C124.272095,273.508789 126.018982,273.613495 127.955734,274.030029 
z"/>
<path fill="#6CBC82" opacity="1.000000" stroke="none" 
	d="
M113.025986,271.380188 
	C112.213142,271.561676 111.326553,271.454163 110.238991,271.068787 
	C111.009422,270.890991 111.980827,270.991119 113.025986,271.380188 
z"/>
<path fill="#6CBC82" opacity="1.000000" stroke="none" 
	d="
M107.988640,270.046570 
	C107.378342,270.214417 106.610123,270.104675 105.661903,269.740570 
	C106.264839,269.580475 107.047783,269.674744 107.988640,270.046570 
z"/>
<path fill="#6CBC82" opacity="1.000000" stroke="none" 
	d="
M117.065247,272.270935 
	C116.553314,272.499481 115.976639,272.475952 115.199059,272.219543 
	C115.665604,271.997406 116.333054,272.008148 117.065247,272.270935 
z"/>
</svg>