<svg version="1.1" id="Layer_1" xmlns="http://www.w3.org/2000/svg" xmlns:xlink="http://www.w3.org/1999/xlink" x="0px" y="0px"
	 width="100%" viewBox="0 0 300 275" enable-background="new 0 0 300 275" xml:space="preserve">
<path fill="#FEFFFF" opacity="1.000000" stroke="none" 
	d="
M152.000000,1.000001 
	C201.628723,1.000000 251.257446,1.000000 300.943085,1.000000 
	C300.943085,92.558662 300.943085,184.117371 300.943085,276.000000 
	C251.646240,276.000000 202.291779,276.000000 152.486420,275.658569 
	C154.695526,272.740234 157.355515,270.163361 160.300385,267.406860 
	C160.752731,266.814758 160.920181,266.402344 161.043884,266.009460 
	C161.000137,266.028992 161.042099,266.115112 161.371704,266.021423 
	C174.197342,254.488617 186.693375,243.049484 199.474960,231.397659 
	C201.556381,229.479874 203.352264,227.774780 205.449921,225.967438 
	C206.837494,224.623032 207.923279,223.380844 209.358551,222.141663 
	C211.836044,219.828339 213.964066,217.512024 216.392578,215.086487 
	C217.795944,213.997421 218.898819,213.017563 220.347473,212.052765 
	C223.171555,209.725342 225.649826,207.382874 228.438141,204.922729 
	C230.114655,203.393616 231.481140,201.982193 233.152435,200.474274 
	C235.214325,198.700516 236.971405,197.023239 239.005341,195.227646 
	C240.558731,193.841965 241.835251,192.574585 243.424164,191.165436 
	C259.195679,176.844101 274.680450,162.692352 290.103485,148.473663 
	C298.278900,140.936661 298.310730,136.074371 290.175262,128.608597 
	C251.410828,93.035149 212.584534,57.529102 173.842407,21.931440 
	C166.418472,15.110068 159.273605,7.984973 152.000000,1.000001 
z"/>
<path fill="#FEFFFF" opacity="1.000000" stroke="none" 
	d="
M150.000000,276.000000 
	C100.371269,276.000000 50.742535,276.000000 1.056901,276.000000 
	C1.056901,184.441315 1.056901,92.882576 1.056901,1.000000 
	C50.353756,1.000000 99.708221,1.000000 149.524506,1.344749 
	C147.330002,4.444044 144.673660,7.198590 141.708908,9.945454 
	C141.236679,10.283871 141.072861,10.629971 140.947632,10.912316 
	C140.986237,10.848561 140.862045,10.766130 140.518311,10.817286 
	C137.511734,13.323804 134.845154,15.775100 132.186752,18.235247 
	C121.464783,28.157631 110.745338,38.082756 99.721268,48.114727 
	C97.904152,49.707253 96.390739,51.191914 94.559280,52.805508 
	C91.907265,55.165905 89.573311,57.397366 86.965439,59.750023 
	C85.416649,61.130531 84.141777,62.389843 82.555374,63.794365 
	C79.572708,66.493889 76.901566,69.048210 73.929962,71.713287 
	C71.552071,73.805794 69.474640,75.787529 67.101700,77.881554 
	C64.485703,80.193306 62.165226,82.392776 59.539726,84.752586 
	C43.441994,99.460251 27.630594,113.987366 11.864267,128.563232 
	C3.691469,136.118942 3.657120,140.902603 11.840176,148.412003 
	C50.597198,183.978409 89.416740,219.476730 128.152039,255.066772 
	C135.577408,261.889191 142.724518,269.014435 150.000000,276.000000 
z"/>
<path fill="#2784FF" opacity="1.000000" stroke="none" 
	d="
M150.333328,276.000000 
	C142.724518,269.014435 135.577408,261.889191 128.152039,255.066772 
	C89.416740,219.476730 50.597198,183.978409 11.840176,148.412003 
	C3.657120,140.902603 3.691469,136.118942 11.864267,128.563232 
	C27.630594,113.987366 43.441994,99.460251 59.602047,85.126633 
	C61.031960,86.779282 61.901920,88.424202 63.186672,89.625534 
	C77.193939,102.723282 91.230721,115.790215 105.362808,128.752869 
	C107.251633,130.485382 109.712105,131.594666 111.866722,133.323517 
	C110.055016,135.081970 108.284447,136.509506 106.274689,138.129868 
	C121.232216,151.861801 135.359390,164.844742 149.525116,177.785477 
	C150.066895,178.280411 150.980667,178.368164 151.803894,179.008118 
	C154.545044,182.262985 157.203384,185.155396 159.940704,188.391022 
	C162.962372,193.833008 165.905045,198.931778 168.887054,204.428986 
	C174.103592,220.629547 174.543533,236.353043 167.883133,251.864487 
	C165.806000,256.701935 163.333572,261.369690 161.042099,266.115112 
	C161.042099,266.115112 161.000137,266.028992 160.754639,266.183258 
	C160.344589,266.753845 160.180054,267.170197 160.015518,267.586517 
	C157.355515,270.163361 154.695526,272.740234 152.017761,275.658569 
	C151.555557,276.000000 151.111099,276.000000 150.333328,276.000000 
z"/>
<path fill="#2784FF" opacity="1.000000" stroke="none" 
	d="
M142.017319,9.953135 
	C144.673660,7.198590 147.330002,4.444044 149.993164,1.344749 
	C150.444443,1.000000 150.888901,1.000000 151.666672,1.000001 
	C159.273605,7.984973 166.418472,15.110068 173.842407,21.931440 
	C212.584534,57.529102 251.410828,93.035149 290.175262,128.608597 
	C298.310730,136.074371 298.278900,140.936661 290.103485,148.473663 
	C274.680450,162.692352 259.195679,176.844101 243.390549,190.777527 
	C241.459320,188.304794 240.099747,185.863251 238.233521,183.904373 
	C235.730606,181.277191 232.827805,179.032379 230.110962,176.607376 
	C223.933487,171.093460 217.639893,165.701752 211.626236,160.014297 
	C205.141724,153.881546 198.922516,147.468292 192.752991,140.928772 
	C193.566101,139.950714 194.213806,139.221283 195.076965,138.249237 
	C180.888031,125.234940 166.832611,112.320053 152.714935,99.473595 
	C152.113861,98.926636 150.936066,99.013451 149.974762,98.469582 
	C144.989761,91.428360 140.056915,84.722588 135.095795,77.636322 
	C131.008743,69.515846 129.626556,61.016880 129.176758,52.529640 
	C128.497147,39.706558 131.833176,27.686811 138.534180,16.634933 
	C139.610046,14.860517 140.100800,12.731320 140.862045,10.766130 
	C140.862045,10.766130 140.986237,10.848561 141.196228,10.824133 
	C141.609909,10.517514 141.813614,10.235325 142.017319,9.953135 
z"/>
<path fill="#0354CD" opacity="1.000000" stroke="none" 
	d="
M161.371704,266.021423 
	C163.333572,261.369690 165.806000,256.701935 167.883133,251.864487 
	C174.543533,236.353043 174.103592,220.629547 169.256378,204.447632 
	C171.019257,204.844070 172.659546,205.384979 173.850830,206.435211 
	C180.768311,212.533691 187.669617,218.657303 194.371964,224.988831 
	C196.322327,226.831268 197.602188,229.383499 199.189407,231.610352 
	C186.693375,243.049484 174.197342,254.488617 161.371704,266.021423 
z"/>
<path fill="#0E63DD" opacity="1.000000" stroke="none" 
	d="
M216.092087,215.195709 
	C213.964066,217.512024 211.836044,219.828339 209.327621,221.786713 
	C205.011139,217.498413 201.162399,213.475632 197.121902,209.655716 
	C186.792740,199.890427 176.443939,190.143539 165.953110,180.553253 
	C163.211411,178.046906 159.921692,176.140060 157.049515,173.669159 
	C159.364212,171.535034 161.513077,169.689606 164.027191,167.906342 
	C168.100128,170.984238 171.922974,173.870422 175.491547,177.042648 
	C182.931763,183.656540 190.317841,190.336166 197.574234,197.150574 
	C203.855820,203.049591 209.927582,209.172028 216.092087,215.195709 
z"/>
<path fill="#227EF9" opacity="1.000000" stroke="none" 
	d="
M192.587570,141.177399 
	C198.922516,147.468292 205.141724,153.881546 211.626236,160.014297 
	C217.639893,165.701752 223.933487,171.093460 230.110962,176.607376 
	C232.827805,179.032379 235.730606,181.277191 238.233521,183.904373 
	C240.099747,185.863251 241.459320,188.304794 243.078156,190.919312 
	C241.835251,192.574585 240.558731,193.841965 238.642120,195.065842 
	C227.780060,185.626953 217.585739,176.201263 207.325302,166.848083 
	C201.591415,161.621185 195.681473,156.585953 190.001770,151.302155 
	C188.635712,150.031311 187.869446,148.115738 187.001160,146.236267 
	C188.979156,144.376358 190.783356,142.776871 192.587570,141.177399 
z"/>
<path fill="#1E78F3" opacity="1.000000" stroke="none" 
	d="
M186.827347,146.496674 
	C187.869446,148.115738 188.635712,150.031311 190.001770,151.302155 
	C195.681473,156.585953 201.591415,161.621185 207.325302,166.848083 
	C217.585739,176.201263 227.780060,185.626953 238.365250,195.184143 
	C236.971405,197.023239 235.214325,198.700516 232.791809,200.252594 
	C222.360641,191.194702 212.635040,182.217651 202.816345,173.343597 
	C195.217728,166.476028 187.502594,159.737411 180.004761,152.647308 
	C182.389297,150.400986 184.608322,148.448822 186.827347,146.496674 
z"/>
<path fill="#085CD6" opacity="1.000000" stroke="none" 
	d="
M156.883667,173.957870 
	C159.921692,176.140060 163.211411,178.046906 165.953110,180.553253 
	C176.443939,190.143539 186.792740,199.890427 197.121902,209.655716 
	C201.162399,213.475632 205.011139,217.498413 208.978149,221.783722 
	C207.923279,223.380844 206.837494,224.623032 205.135681,225.822601 
	C202.222870,223.896423 199.824203,222.123093 197.646774,220.110428 
	C187.690170,210.907272 177.884262,201.538544 167.809067,192.468292 
	C165.613144,190.491379 162.534042,189.495514 159.861710,188.047821 
	C157.203384,185.155396 154.545044,182.262985 151.985840,178.742676 
	C153.684540,176.729126 155.284103,175.343491 156.883667,173.957870 
z"/>
<path fill="#166EE8" opacity="1.000000" stroke="none" 
	d="
M228.128113,205.040421 
	C225.649826,207.382874 223.171555,209.725342 220.346664,211.667450 
	C218.850082,209.203842 218.124756,206.685974 216.481369,205.150955 
	C205.631531,195.016418 194.644531,185.025833 183.573151,175.132767 
	C178.829330,170.893829 173.776169,167.001083 169.028931,162.665527 
	C170.999619,160.858597 172.804932,159.337158 174.941895,157.961456 
	C181.487961,163.543884 187.810974,168.862305 193.892593,174.443741 
	C204.251297,183.950470 214.441345,193.640823 224.758408,203.193359 
	C225.670135,204.037506 226.995087,204.435318 228.128113,205.040421 
z"/>
<path fill="#1973ED" opacity="1.000000" stroke="none" 
	d="
M228.438141,204.922729 
	C226.995087,204.435318 225.670135,204.037506 224.758408,203.193359 
	C214.441345,193.640823 204.251297,183.950470 193.892593,174.443741 
	C187.810974,168.862305 181.487961,163.543884 175.096893,157.665100 
	C176.559921,155.795837 178.199585,154.368652 179.839249,152.941467 
	C187.502594,159.737411 195.217728,166.476028 202.816345,173.343597 
	C212.635040,182.217651 222.360641,191.194702 232.486969,200.349075 
	C231.481140,201.982193 230.114655,203.393616 228.438141,204.922729 
z"/>
<path fill="#1168E3" opacity="1.000000" stroke="none" 
	d="
M168.863556,162.951035 
	C173.776169,167.001083 178.829330,170.893829 183.573151,175.132767 
	C194.644531,185.025833 205.631531,195.016418 216.481369,205.150955 
	C218.124756,206.685974 218.850082,209.203842 220.000854,211.652405 
	C218.898819,213.017563 217.795944,213.997421 216.392578,215.086487 
	C209.927582,209.172028 203.855820,203.049591 197.574234,197.150574 
	C190.317841,190.336166 182.931763,183.656540 175.491547,177.042648 
	C171.922974,173.870422 168.100128,170.984238 164.180939,167.610916 
	C165.600815,165.819229 167.232178,164.385132 168.863556,162.951035 
z"/>
<path fill="#0557D1" opacity="1.000000" stroke="none" 
	d="
M159.940704,188.391022 
	C162.534042,189.495514 165.613144,190.491379 167.809067,192.468292 
	C177.884262,201.538544 187.690170,210.907272 197.646774,220.110428 
	C199.824203,222.123093 202.222870,223.896423 204.833893,225.924835 
	C203.352264,227.774780 201.556381,229.479874 199.474960,231.397675 
	C197.602188,229.383499 196.322327,226.831268 194.371964,224.988831 
	C187.669617,218.657303 180.768311,212.533691 173.850830,206.435211 
	C172.659546,205.384979 171.019257,204.844070 169.217056,204.049225 
	C165.905045,198.931778 162.962372,193.833008 159.940704,188.391022 
z"/>
<path fill="#0354CD" opacity="1.000000" stroke="none" 
	d="
M160.300415,267.406860 
	C160.180054,267.170197 160.344589,266.753845 160.798370,266.163727 
	C160.920181,266.402344 160.752731,266.814758 160.300415,267.406860 
z"/>
<path fill="#0355CE" opacity="1.000000" stroke="none" 
	d="
M140.518311,10.817285 
	C140.100800,12.731320 139.610046,14.860517 138.534180,16.634933 
	C131.833176,27.686811 128.497147,39.706558 129.176758,52.529640 
	C129.626556,61.016880 131.008743,69.515846 134.715042,77.627403 
	C133.720520,77.873795 132.880005,77.967453 132.465454,77.591461 
	C121.625038,67.759605 110.828796,57.879047 100.024963,48.006866 
	C110.745338,38.082756 121.464783,28.157631 132.186752,18.235247 
	C134.845154,15.775100 137.511734,13.323804 140.518311,10.817285 
z"/>
<path fill="#207CF6" opacity="1.000000" stroke="none" 
	d="
M111.907860,132.992569 
	C109.712105,131.594666 107.251633,130.485382 105.362808,128.752869 
	C91.230721,115.790215 77.193939,102.723282 63.186672,89.625534 
	C61.901920,88.424202 61.031960,86.779282 59.907066,84.966293 
	C62.165226,82.392776 64.485703,80.193306 67.447365,78.041412 
	C75.200836,84.701279 82.308708,91.318321 89.426514,97.924660 
	C98.617683,106.455353 107.784210,115.013313 117.060410,123.450623 
	C118.042000,124.343437 119.687653,124.506157 120.887657,125.313614 
	C117.802681,128.077301 114.855270,130.534927 111.907860,132.992569 
z"/>
<path fill="#1A74EE" opacity="1.000000" stroke="none" 
	d="
M121.025230,125.007584 
	C119.687653,124.506157 118.042000,124.343437 117.060410,123.450623 
	C107.784210,115.013313 98.617683,106.455353 89.426514,97.924660 
	C82.308708,91.318321 75.200836,84.701279 67.742882,77.929138 
	C69.474640,75.787529 71.552071,73.805794 74.296577,71.889206 
	C77.893974,74.387726 80.893730,76.742874 83.740517,79.270325 
	C90.188293,84.994820 96.626793,90.732979 102.947189,96.596939 
	C111.076637,104.139320 119.086761,111.810333 127.008743,119.708344 
	C124.921219,121.663033 122.973221,123.335304 121.025230,125.007584 
z"/>
<path fill="#156DE7" opacity="1.000000" stroke="none" 
	d="
M127.148277,119.425949 
	C119.086761,111.810333 111.076637,104.139320 102.947189,96.596939 
	C96.626793,90.732979 90.188293,84.994820 83.740517,79.270325 
	C80.893730,76.742874 77.893974,74.387726 74.597046,71.778442 
	C76.901566,69.048210 79.572708,66.493889 82.614517,64.173141 
	C85.306580,67.087807 87.420609,69.988976 89.988533,72.408394 
	C97.457863,79.445786 105.221466,86.171967 112.656242,93.244553 
	C119.718071,99.962357 126.510452,106.963402 133.250229,114.099014 
	C131.102188,116.047401 129.125244,117.736671 127.148277,119.425949 
z"/>
<path fill="#1067E1" opacity="1.000000" stroke="none" 
	d="
M133.421310,113.839905 
	C126.510452,106.963402 119.718071,99.962357 112.656242,93.244553 
	C105.221466,86.171967 97.457863,79.445786 89.988533,72.408394 
	C87.420609,69.988976 85.306580,67.087807 82.926056,64.027939 
	C84.141777,62.389843 85.416649,61.130531 87.329346,59.915016 
	C92.057022,63.551521 96.227341,67.057281 100.221008,70.753899 
	C110.528374,80.294571 120.700394,89.982086 131.054047,99.471756 
	C134.051468,102.219063 137.480484,104.495468 140.633331,107.300262 
	C138.177109,109.688484 135.799210,111.764191 133.421310,113.839905 
z"/>
<path fill="#075BD5" opacity="1.000000" stroke="none" 
	d="
M99.721268,48.114727 
	C110.828796,57.879047 121.625038,67.759605 132.465454,77.591461 
	C132.880005,77.967453 133.720520,77.873795 134.743286,78.007904 
	C140.056915,84.722588 144.989761,91.428360 149.762451,98.741180 
	C148.211304,100.516113 146.820297,101.683998 145.277939,102.489243 
	C144.626602,101.465767 144.211823,100.713341 143.614197,100.157478 
	C128.190384,85.811432 112.723190,71.511841 97.356125,57.105404 
	C96.179756,56.002575 95.687546,54.169971 94.877335,52.676575 
	C96.390739,51.191914 97.904152,49.707253 99.721268,48.114727 
z"/>
<path fill="#0C61DB" opacity="1.000000" stroke="none" 
	d="
M94.559280,52.805511 
	C95.687546,54.169971 96.179756,56.002575 97.356125,57.105404 
	C112.723190,71.511841 128.190384,85.811432 143.614197,100.157478 
	C144.211823,100.713341 144.626602,101.465767 145.114746,102.750671 
	C143.639160,104.579079 142.175415,105.783409 140.711655,106.987747 
	C137.480484,104.495468 134.051468,102.219063 131.054047,99.471756 
	C120.700394,89.982086 110.528374,80.294571 100.221008,70.753899 
	C96.227341,67.057281 92.057022,63.551521 87.603271,59.793819 
	C89.573311,57.397366 91.907265,55.165905 94.559280,52.805511 
z"/>
<path fill="#0355CE" opacity="1.000000" stroke="none" 
	d="
M141.708908,9.945453 
	C141.813614,10.235325 141.609909,10.517514 141.157623,10.887888 
	C141.072861,10.629971 141.236679,10.283871 141.708908,9.945453 
z"/>
<path fill="#FDFEFF" opacity="1.000000" stroke="none" 
	d="
M140.633331,107.300262 
	C142.175415,105.783409 143.639160,104.579079 145.266113,103.113312 
	C146.820297,101.683998 148.211304,100.516113 149.814606,99.076630 
	C150.936066,99.013451 152.113861,98.926636 152.714935,99.473595 
	C166.832611,112.320053 180.888031,125.234940 195.076965,138.249237 
	C194.213806,139.221283 193.566101,139.950714 192.752991,140.928772 
	C190.783356,142.776871 188.979156,144.376358 187.001160,146.236252 
	C184.608322,148.448822 182.389297,150.400986 180.004761,152.647308 
	C178.199585,154.368652 176.559921,155.795837 174.765244,157.519379 
	C172.804932,159.337158 170.999619,160.858597 169.028931,162.665527 
	C167.232178,164.385132 165.600815,165.819229 163.815689,167.548767 
	C161.513077,169.689606 159.364212,171.535034 157.049515,173.669159 
	C155.284103,175.343491 153.684540,176.729126 151.903046,178.380203 
	C150.980667,178.368164 150.066895,178.280411 149.525116,177.785477 
	C135.359390,164.844742 121.232216,151.861801 106.274689,138.129868 
	C108.284447,136.509506 110.055016,135.081970 111.866722,133.323517 
	C114.855270,130.534927 117.802681,128.077301 120.887657,125.313614 
	C122.973221,123.335304 124.921219,121.663033 127.008743,119.708351 
	C129.125244,117.736671 131.102188,116.047401 133.250229,114.099014 
	C135.799210,111.764191 138.177109,109.688484 140.633331,107.300262 
z"/>
</svg>