<svg version="1.1" id="Layer_1" xmlns="http://www.w3.org/2000/svg" xmlns:xlink="http://www.w3.org/1999/xlink" x="0px" y="0px"
	 width="100%" viewBox="0 0 280 280" enable-background="new 0 0 280 280" xml:space="preserve">
<path fill="#FFFFFE" opacity="1.000000" stroke="none" 
	d="
M185.000000,281.000000 
	C123.333344,281.000000 62.166679,281.000000 1.000016,281.000000 
	C1.000011,187.666687 1.000011,94.333374 1.000005,1.000041 
	C94.333305,1.000028 187.666611,1.000028 280.999939,1.000014 
	C280.999939,94.333290 280.999939,187.666580 280.999969,280.999939 
	C249.166672,281.000000 217.333328,281.000000 185.000000,281.000000 
M65.857224,191.934586 
	C73.943367,192.295883 82.029518,192.657166 90.451302,193.033463 
	C90.569244,190.566788 90.706818,188.948441 90.713852,187.329529 
	C90.748604,179.333115 90.545647,171.330017 90.802681,163.341385 
	C91.370117,145.705338 105.575607,132.042938 123.149162,132.007538 
	C135.144104,131.983383 147.142410,132.167557 159.133240,131.941650 
	C173.147903,131.677612 184.415756,121.000229 184.636154,107.587196 
	C184.896149,91.764801 184.898453,75.931297 184.625992,60.109268 
	C184.418381,48.053387 177.426224,38.698318 166.112381,35.606869 
	C148.765411,30.866886 131.446609,31.895784 114.453438,37.558235 
	C107.706047,39.806587 102.424866,44.343193 101.941635,51.717308 
	C101.284286,61.748600 101.777824,71.855309 101.777824,82.404327 
	C116.900215,82.404327 132.169647,82.404327 147.638519,82.404327 
	C147.638519,86.254082 147.638519,89.627800 147.638519,93.275948 
	C145.433685,93.275948 143.611221,93.275764 141.788757,93.275978 
	C120.131134,93.278572 98.473122,93.204391 76.816017,93.311241 
	C62.687679,93.380943 52.297764,99.849800 48.386826,111.969429 
	C41.401592,133.616028 41.994930,155.307220 50.107166,176.607254 
	C52.808918,183.701126 57.538742,189.211853 65.857224,191.934586 
M209.417114,82.245209 
	C204.797424,82.245209 200.177719,82.245209 195.011520,82.245209 
	C195.011520,91.926414 194.942688,101.040955 195.026733,110.154083 
	C195.173615,126.082237 181.241074,144.069046 161.979523,143.093140 
	C150.182831,142.495407 138.327911,142.833862 126.504097,143.038223 
	C111.819847,143.292023 101.064522,154.325409 101.035400,168.885345 
	C101.005081,184.044189 100.963394,199.203522 101.053665,214.361908 
	C101.125183,226.370056 107.696770,235.942154 119.076958,239.170364 
	C137.063965,244.272705 155.021744,243.182541 172.572174,236.834381 
	C178.188065,234.803055 182.719070,230.740677 183.377487,224.706741 
	C184.521103,214.226044 184.651047,203.634750 185.237778,192.486633 
	C168.798172,192.486633 153.561325,192.486633 138.042725,192.486633 
	C138.042725,188.696335 138.042725,185.474930 138.042725,181.710526 
	C140.135254,181.710526 141.922256,181.710693 143.709259,181.710495 
	C165.364822,181.708054 187.020706,181.775284 208.675858,181.678864 
	C223.424530,181.613190 233.779587,174.714706 237.739639,161.762054 
	C244.018768,141.223938 243.540390,120.633080 236.369431,100.398033 
	C231.675186,87.151810 224.248367,82.285324 209.417114,82.245209 
z"/>
<path fill="#0579BE" opacity="1.000000" stroke="none" 
	d="
M65.467216,191.830673 
	C57.538742,189.211853 52.808918,183.701126 50.107166,176.607254 
	C41.994930,155.307220 41.401592,133.616028 48.386826,111.969429 
	C52.297764,99.849800 62.687679,93.380943 76.816017,93.311241 
	C98.473122,93.204391 120.131134,93.278572 141.788757,93.275978 
	C143.611221,93.275764 145.433685,93.275948 147.638519,93.275948 
	C147.638519,89.627800 147.638519,86.254082 147.638519,82.404327 
	C132.169647,82.404327 116.900215,82.404327 101.777824,82.404327 
	C101.777824,71.855309 101.284286,61.748600 101.941635,51.717308 
	C102.424866,44.343193 107.706047,39.806587 114.453438,37.558235 
	C131.446609,31.895784 148.765411,30.866886 166.112381,35.606869 
	C177.426224,38.698318 184.418381,48.053387 184.625992,60.109268 
	C184.898453,75.931297 184.896149,91.764801 184.636154,107.587196 
	C184.415756,121.000229 173.147903,131.677612 159.133240,131.941650 
	C147.142410,132.167557 135.144104,131.983383 123.149162,132.007538 
	C105.575607,132.042938 91.370117,145.705338 90.802681,163.341385 
	C90.545647,171.330017 90.748604,179.333115 90.713852,187.329529 
	C90.706818,188.948441 90.569244,190.566788 90.451302,193.033463 
	C82.029518,192.657166 73.943367,192.295883 65.467216,191.830673 
M113.318527,57.783268 
	C112.756256,59.141605 111.471947,60.693184 111.773598,61.820309 
	C112.532516,64.655983 113.353081,68.110870 115.402214,69.764297 
	C117.040100,71.085899 121.180450,71.117874 123.010513,69.907913 
	C125.065437,68.549271 126.875221,65.098480 126.756187,62.657143 
	C126.637100,60.214699 124.474121,56.666988 122.346016,55.851910 
	C120.020050,54.961044 116.706886,56.647648 113.318527,57.783268 
z"/>
<path fill="#FFC20A" opacity="1.000000" stroke="none" 
	d="
M209.899506,82.245407 
	C224.248367,82.285324 231.675186,87.151810 236.369431,100.398033 
	C243.540390,120.633080 244.018768,141.223938 237.739639,161.762054 
	C233.779587,174.714706 223.424530,181.613190 208.675858,181.678864 
	C187.020706,181.775284 165.364822,181.708054 143.709259,181.710495 
	C141.922256,181.710693 140.135254,181.710526 138.042725,181.710526 
	C138.042725,185.474930 138.042725,188.696335 138.042725,192.486633 
	C153.561325,192.486633 168.798172,192.486633 185.237778,192.486633 
	C184.651047,203.634750 184.521103,214.226044 183.377487,224.706741 
	C182.719070,230.740677 178.188065,234.803055 172.572174,236.834381 
	C155.021744,243.182541 137.063965,244.272705 119.076958,239.170364 
	C107.696770,235.942154 101.125183,226.370056 101.053665,214.361908 
	C100.963394,199.203522 101.005081,184.044189 101.035400,168.885345 
	C101.064522,154.325409 111.819847,143.292023 126.504097,143.038223 
	C138.327911,142.833862 150.182831,142.495407 161.979523,143.093140 
	C181.241074,144.069046 195.173615,126.082237 195.026733,110.154083 
	C194.942688,101.040955 195.011520,91.926414 195.011520,82.245209 
	C200.177719,82.245209 204.797424,82.245209 209.899506,82.245407 
M170.912140,218.589676 
	C171.782043,217.406998 172.971817,216.342560 173.461090,215.019165 
	C174.855301,211.248093 174.378693,207.277512 170.769821,205.451447 
	C168.402176,204.253448 164.553650,204.159424 162.155548,205.270340 
	C158.534348,206.947876 157.773178,210.840851 159.038422,214.715622 
	C160.592651,219.475464 164.639526,220.984024 170.912140,218.589676 
z"/>
<path fill="#F6FAFC" opacity="1.000000" stroke="none" 
	d="
M113.571266,57.497059 
	C116.706886,56.647648 120.020050,54.961044 122.346016,55.851910 
	C124.474121,56.666988 126.637100,60.214699 126.756187,62.657143 
	C126.875221,65.098480 125.065437,68.549271 123.010513,69.907913 
	C121.180450,71.117874 117.040100,71.085899 115.402214,69.764297 
	C113.353081,68.110870 112.532516,64.655983 111.773598,61.820309 
	C111.471947,60.693184 112.756256,59.141605 113.571266,57.497059 
z"/>
<path fill="#FEFCF6" opacity="1.000000" stroke="none" 
	d="
M170.586426,218.815582 
	C164.639526,220.984024 160.592651,219.475464 159.038422,214.715622 
	C157.773178,210.840851 158.534348,206.947876 162.155548,205.270340 
	C164.553650,204.159424 168.402176,204.253448 170.769821,205.451447 
	C174.378693,207.277512 174.855301,211.248093 173.461090,215.019165 
	C172.971817,216.342560 171.782043,217.406998 170.586426,218.815582 
z"/>
</svg>