<svg version="1.1" id="Layer_1" xmlns="http://www.w3.org/2000/svg" xmlns:xlink="http://www.w3.org/1999/xlink" x="0px" y="0px"
	 width="100%" viewBox="0 0 300 275" enable-background="new 0 0 300 275" xml:space="preserve">
<path fill="#FEFEFF" opacity="1.000000" stroke="none" 
	d="
M207.000000,276.000000 
	C169.312439,276.000000 131.624878,276.000000 93.698853,275.661682 
	C97.572411,274.733490 101.727646,274.354462 105.789803,273.521484 
	C151.654236,264.116516 185.903992,239.091095 207.963638,197.584351 
	C208.987259,195.658340 211.175888,193.778091 213.232895,193.069550 
	C224.944214,189.035599 230.812180,176.761337 226.205856,165.259995 
	C221.803680,154.268417 208.992691,149.402435 198.404907,154.700409 
	C187.474640,160.169739 183.525162,173.707382 190.318039,184.091827 
	C192.461655,187.368835 192.068008,189.553696 190.385834,192.589111 
	C178.912720,213.292007 162.158737,228.598953 142.051788,240.603424 
	C121.842522,252.668991 100.499062,259.575073 76.513123,257.232819 
	C41.127266,253.777328 19.364302,220.964813 30.612818,187.245361 
	C35.385193,172.939301 44.332775,161.507706 55.437557,151.570068 
	C56.688545,150.450562 58.533478,148.603790 58.303036,147.455460 
	C57.177792,141.848160 55.441551,136.363464 53.891621,130.727051 
	C52.882595,131.107697 52.352036,131.182983 51.979614,131.466217 
	C32.381329,146.371490 17.888161,164.892181 13.317931,189.577042 
	C6.913825,224.167114 18.840590,262.648438 66.620972,273.484955 
	C70.092232,274.272247 73.540855,275.159302 77.000000,276.000000 
	C51.689251,276.000000 26.378500,276.000000 1.033875,276.000000 
	C1.033875,184.437637 1.033875,92.875267 1.033875,1.000000 
	C47.353760,1.000000 93.708221,1.000000 140.377441,1.345281 
	C103.927567,10.387812 83.692566,35.269238 74.106522,70.241989 
	C63.172142,110.133926 70.163628,147.792633 89.225815,183.731598 
	C90.821365,186.739761 91.275574,189.139938 90.069618,192.528717 
	C85.034286,206.678253 97.525726,221.829880 111.955086,219.416458 
	C122.834831,217.596741 130.198502,208.760208 129.737732,198.076996 
	C129.271866,187.276367 120.825378,179.030121 109.730927,178.099747 
	C107.801071,177.937912 105.093040,176.717377 104.273323,175.173859 
	C85.747063,140.289520 81.011879,103.897903 93.729019,66.061935 
	C98.229927,52.670853 104.849091,39.946999 116.776123,31.713772 
	C144.480118,12.589714 176.886856,11.756892 197.125351,48.132893 
	C202.927917,58.562260 206.820282,69.668243 208.642944,81.497414 
	C208.902039,83.178894 209.443359,85.795639 210.526108,86.205902 
	C215.863663,88.228371 221.427612,89.653313 227.522171,91.471207 
	C226.384293,76.778267 223.661362,63.321056 218.099472,50.539471 
	C209.050354,29.744026 195.301620,13.442383 173.602509,5.014834 
	C169.500641,3.421739 165.205795,2.325500 161.000000,1.000000 
	C207.624542,1.000000 254.249084,1.000000 300.936829,1.000000 
	C300.936829,92.666664 300.936829,184.333328 300.936829,276.000000 
	C277.895782,276.000000 254.916550,276.000000 231.680145,275.664917 
	C238.329758,273.551453 245.478088,272.408020 252.102707,269.887878 
	C286.054626,256.972046 302.148743,228.470718 295.763306,192.937439 
	C292.198029,173.097672 282.232788,156.561188 268.464874,142.192566 
	C238.355164,110.769135 200.857559,97.268616 157.985901,97.130836 
	C154.566422,97.119843 152.329041,96.350967 150.025879,93.530251 
	C142.194016,83.938492 128.590057,83.647102 120.121902,92.481453 
	C111.853851,101.107033 112.613831,115.215302 121.752327,122.749130 
	C131.126801,130.477509 144.713806,128.663452 151.454788,118.405273 
	C153.297485,115.601135 155.215622,114.844933 158.286652,114.788193 
	C190.339325,114.195923 218.877563,124.147141 244.142960,143.577499 
	C260.135712,155.876755 271.701508,171.550705 277.597931,190.988861 
	C286.615631,220.716629 269.386597,250.612823 239.249741,257.541168 
	C223.643341,261.128998 208.515472,258.487030 193.687286,253.120010 
	C191.990570,252.505890 189.386078,251.910950 188.224197,252.739624 
	C183.242798,256.292511 178.643784,260.381531 172.969711,265.043976 
	C179.961746,267.556305 186.107101,269.924866 192.361084,271.959686 
	C197.169861,273.524231 202.115326,274.668701 207.000000,276.000000 
z"/>
<path fill="#794EBE" opacity="1.000000" stroke="none" 
	d="
M160.531586,1.000000 
	C165.205795,2.325500 169.500641,3.421739 173.602509,5.014834 
	C195.301620,13.442383 209.050354,29.744026 218.099472,50.539471 
	C223.661362,63.321056 226.384293,76.778267 227.522171,91.471207 
	C221.427612,89.653313 215.863663,88.228371 210.526108,86.205902 
	C209.443359,85.795639 208.902039,83.178894 208.642944,81.497414 
	C206.820282,69.668243 202.927917,58.562260 197.125351,48.132893 
	C176.886856,11.756892 144.480118,12.589714 116.776123,31.713772 
	C104.849091,39.946999 98.229927,52.670853 93.729019,66.061935 
	C81.011879,103.897903 85.747063,140.289520 104.273323,175.173859 
	C105.093040,176.717377 107.801071,177.937912 109.730927,178.099747 
	C120.825378,179.030121 129.271866,187.276367 129.737732,198.076996 
	C130.198502,208.760208 122.834831,217.596741 111.955086,219.416458 
	C97.525726,221.829880 85.034286,206.678253 90.069618,192.528717 
	C91.275574,189.139938 90.821365,186.739761 89.225815,183.731598 
	C70.163628,147.792633 63.172142,110.133926 74.106522,70.241989 
	C83.692566,35.269238 103.927567,10.387812 140.846100,1.345281 
	C147.354401,1.000000 153.708786,1.000000 160.531586,1.000000 
z"/>
<path fill="#794EBD" opacity="1.000000" stroke="none" 
	d="
M77.466858,276.000000 
	C73.540855,275.159302 70.092232,274.272247 66.620972,273.484955 
	C18.840590,262.648438 6.913825,224.167114 13.317931,189.577042 
	C17.888161,164.892181 32.381329,146.371490 51.979614,131.466217 
	C52.352036,131.182983 52.882595,131.107697 53.891621,130.727051 
	C55.441551,136.363464 57.177792,141.848160 58.303036,147.455460 
	C58.533478,148.603790 56.688545,150.450562 55.437557,151.570068 
	C44.332775,161.507706 35.385193,172.939301 30.612818,187.245361 
	C19.364302,220.964813 41.127266,253.777328 76.513123,257.232819 
	C100.499062,259.575073 121.842522,252.668991 142.051788,240.603424 
	C162.158737,228.598953 178.912720,213.292007 190.385834,192.589111 
	C192.068008,189.553696 192.461655,187.368835 190.318039,184.091827 
	C183.525162,173.707382 187.474640,160.169739 198.404907,154.700409 
	C208.992691,149.402435 221.803680,154.268417 226.205856,165.259995 
	C230.812180,176.761337 224.944214,189.035599 213.232895,193.069550 
	C211.175888,193.778091 208.987259,195.658340 207.963638,197.584351 
	C185.903992,239.091095 151.654236,264.116516 105.789803,273.521484 
	C101.727646,274.354462 97.572411,274.733490 93.230194,275.661682 
	C87.977905,276.000000 82.955818,276.000000 77.466858,276.000000 
z"/>
<path fill="#794DBD" opacity="1.000000" stroke="none" 
	d="
M207.468628,276.000000 
	C202.115326,274.668701 197.169861,273.524231 192.361084,271.959686 
	C186.107101,269.924866 179.961746,267.556305 172.969711,265.043976 
	C178.643784,260.381531 183.242798,256.292511 188.224197,252.739624 
	C189.386078,251.910950 191.990570,252.505890 193.687286,253.120010 
	C208.515472,258.487030 223.643341,261.128998 239.249741,257.541168 
	C269.386597,250.612823 286.615631,220.716629 277.597931,190.988861 
	C271.701508,171.550705 260.135712,155.876755 244.142960,143.577499 
	C218.877563,124.147141 190.339325,114.195923 158.286652,114.788193 
	C155.215622,114.844933 153.297485,115.601135 151.454788,118.405273 
	C144.713806,128.663452 131.126801,130.477509 121.752327,122.749130 
	C112.613831,115.215302 111.853851,101.107033 120.121902,92.481453 
	C128.590057,83.647102 142.194016,83.938492 150.025879,93.530251 
	C152.329041,96.350967 154.566422,97.119843 157.985901,97.130836 
	C200.857559,97.268616 238.355164,110.769135 268.464874,142.192566 
	C282.232788,156.561188 292.198029,173.097672 295.763306,192.937439 
	C302.148743,228.470718 286.054626,256.972046 252.102707,269.887878 
	C245.478088,272.408020 238.329758,273.551453 231.211487,275.664917 
	C223.312424,276.000000 215.624832,276.000000 207.468628,276.000000 
z"/>
</svg>