<svg version="1.1" id="Layer_1" xmlns="http://www.w3.org/2000/svg" xmlns:xlink="http://www.w3.org/1999/xlink" x="0px" y="0px"
	 width="100%" viewBox="0 0 280 280" enable-background="new 0 0 280 280" xml:space="preserve">
<path fill="#FEFFFF" opacity="1.000000" stroke="none" 
	d="
M159.000000,281.000000 
	C106.000000,281.000000 53.500000,281.000000 1.000000,281.000000 
	C1.000000,187.666672 1.000000,94.333336 1.000000,1.000000 
	C94.333336,1.000000 187.666672,1.000000 281.000000,1.000000 
	C281.000000,94.333336 281.000000,187.666672 281.000000,281.000000 
	C240.500000,281.000000 200.000000,281.000000 159.000000,281.000000 
M140.074905,222.616165 
	C141.136292,222.447052 142.197678,222.277954 143.941650,221.970856 
	C146.297089,220.833954 148.652512,219.697052 151.900543,218.728394 
	C154.931305,218.696594 157.962082,218.664795 161.634048,218.948883 
	C163.535492,220.298462 165.436935,221.648041 167.305496,223.597733 
	C167.825943,224.175079 168.346390,224.752411 168.882599,226.209229 
	C168.930923,229.505096 168.979263,232.800964 168.228256,236.170349 
	C167.119110,235.943756 166.003433,235.744843 164.901932,235.485764 
	C160.155655,234.369553 155.457840,232.595337 150.659149,232.263153 
	C143.996689,231.801926 137.929703,236.577682 136.260254,242.409836 
	C134.079483,250.028290 136.345139,256.796173 142.384186,260.745728 
	C149.464340,265.376221 156.456909,264.317169 163.643860,260.816284 
	C165.388123,259.966644 167.779221,260.444885 170.259064,260.900024 
	C173.542770,263.143585 175.765732,261.537231 175.807190,258.345215 
	C175.942810,247.900558 175.541000,237.448914 175.590759,226.477371 
	C175.335449,226.009506 175.080154,225.541656 174.838852,224.355286 
	C173.388535,218.382568 169.393143,214.551041 163.585709,213.848755 
	C158.489502,213.232483 153.202927,214.190384 147.403519,214.340256 
	C146.798798,214.839569 146.194077,215.338882 144.881393,215.870270 
	C141.828156,216.783981 139.381729,218.187881 140.074905,222.616165 
M195.410370,44.270588 
	C190.571274,33.125961 183.890137,29.216772 172.468750,33.366371 
	C164.709213,36.185555 157.553787,41.169956 150.799500,46.104855 
	C144.686127,50.571476 145.365356,50.579338 139.266586,46.080471 
	C132.530182,41.111256 125.385452,36.179737 117.661087,33.186569 
	C106.060654,28.691416 95.010818,36.307999 94.260094,48.716251 
	C93.784737,56.573074 94.412315,64.544250 95.142265,72.408722 
	C95.588814,77.219894 94.918266,80.100426 89.645241,81.691330 
	C84.282928,83.309174 79.059425,85.816658 74.231743,88.699265 
	C57.397961,98.750755 54.880791,114.298729 72.909966,125.690170 
	C77.932526,128.863571 83.470200,131.339020 89.003044,133.557281 
	C95.665901,136.228592 95.811745,136.885757 95.028923,144.223328 
	C94.192833,152.060196 93.697311,160.081711 94.407188,167.899658 
	C95.414833,178.996933 104.518532,185.098938 115.309692,183.020630 
	C125.345139,181.087891 133.220322,175.230911 140.521881,168.616028 
	C143.705673,165.731659 145.937851,165.140594 149.382385,168.223969 
	C156.726730,174.798309 164.603073,180.667358 174.525192,182.927994 
	C184.379578,185.173172 191.979324,181.019424 195.185165,171.350922 
	C198.265701,162.060287 197.284805,152.595551 195.624741,143.222977 
	C194.367386,136.124069 194.339447,136.553101 201.155563,133.534576 
	C208.389084,130.331207 215.739716,126.975891 222.154663,122.436829 
	C232.087494,115.408600 232.574341,103.389145 224.013443,94.767456 
	C217.404755,88.111839 209.188278,84.086243 200.299210,81.487617 
	C195.824799,80.179565 194.723343,78.202209 195.245880,73.208961 
	C196.220108,63.899097 195.639786,54.426556 195.410370,44.270588 
M51.961319,248.587814 
	C54.000793,251.825790 56.199024,254.976471 58.039932,258.323639 
	C60.391476,262.599304 63.653271,262.688354 68.236755,261.000916 
	C66.994705,258.651489 66.078362,256.563782 64.856163,254.673859 
	C61.421734,249.363037 57.837727,244.149216 54.362888,238.864151 
	C53.080452,236.913605 52.102448,235.165955 55.465252,233.917419 
	C66.084404,229.974792 69.033440,225.496689 68.982903,214.102768 
	C68.933167,202.889603 61.559063,195.308411 50.294079,195.111252 
	C42.464153,194.974213 34.628670,195.163559 26.798260,195.041290 
	C23.415283,194.988464 22.000404,196.265442 22.015764,199.734146 
	C22.100624,218.897903 22.065769,238.062256 22.045170,257.226379 
	C22.042427,259.777710 22.309380,262.047424 25.650898,261.943512 
	C29.082218,261.836761 28.932978,259.320862 28.932047,256.922089 
	C28.930042,251.756119 29.019705,246.588623 28.920231,241.424683 
	C28.846182,237.580643 30.212080,236.038834 34.387280,235.556366 
	C41.567337,234.726685 46.167732,237.257355 49.014278,243.690796 
	C49.681938,245.199768 50.719566,246.545029 51.961319,248.587814 
M83.324425,255.148788 
	C92.603279,264.774933 106.716232,266.682983 117.398781,259.519196 
	C118.732124,258.625031 119.249352,256.513947 120.144737,254.966705 
	C118.421600,254.876358 116.673958,254.575119 114.984138,254.771484 
	C113.898872,254.897568 112.925766,255.819412 111.856277,256.276703 
	C100.996155,260.920288 89.499344,256.425995 86.410110,246.349075 
	C84.878387,241.352707 85.832260,239.979416 91.062851,239.954086 
	C100.727737,239.907242 110.393234,239.898926 120.057953,239.958725 
	C122.956749,239.976654 125.162949,239.322952 124.837517,235.860214 
	C123.210648,218.550018 110.518639,208.384201 93.442970,214.279999 
	C77.737770,219.702621 73.087440,239.603424 83.324425,255.148788 
M196.023346,236.738083 
	C196.063721,236.407639 196.077911,236.071503 196.148224,235.747559 
	C199.739700,219.200256 209.221649,214.798325 224.043213,222.619263 
	C225.145309,223.200806 226.959381,222.433105 228.442474,222.292633 
	C228.189056,220.949493 228.328415,219.334793 227.618149,218.307510 
	C223.174988,211.881165 210.352386,211.624466 203.964386,214.310364 
	C192.983109,218.927521 187.662094,229.529678 189.196533,242.637527 
	C190.490036,253.687164 198.322739,261.915039 210.064957,263.529205 
	C216.409515,264.401428 222.802246,263.467377 227.617874,258.459808 
	C228.434952,257.610199 228.742218,255.701401 228.408707,254.531830 
	C228.214691,253.851440 226.247391,253.285812 225.133163,253.373032 
	C224.100769,253.453857 223.147980,254.482361 222.149460,255.075592 
	C214.165939,259.818756 200.909531,258.051270 197.616699,245.865906 
	C196.884583,243.156647 196.528564,240.345734 196.023346,236.738083 
M242.708557,220.891510 
	C243.162277,222.760910 243.975662,224.624069 244.008209,226.500778 
	C244.158234,235.149399 243.886002,243.808228 244.156525,252.451126 
	C244.448029,261.763916 250.128204,265.671234 258.921814,262.802704 
	C260.263550,262.365021 261.264404,260.882324 262.422913,259.882935 
	C261.041748,258.981720 259.740173,257.480865 258.265411,257.285187 
	C252.497253,256.519714 250.838623,255.066910 250.726837,249.099182 
	C250.586639,241.615173 250.890930,234.118683 250.602448,226.643066 
	C250.420013,221.915375 251.579468,219.351257 256.925934,219.713730 
	C258.096161,219.793076 259.407318,217.793121 260.653595,216.750732 
	C259.573395,215.679199 258.590057,214.473221 257.370758,213.594772 
	C256.791351,213.177338 255.752853,213.265808 254.938202,213.329147 
	C251.638626,213.585617 250.413727,211.989731 250.662369,208.849747 
	C250.767014,207.528427 251.027145,206.034821 250.552750,204.896072 
	C249.863876,203.242447 248.573776,201.839279 247.540070,200.329285 
	C246.387024,201.873550 245.120178,203.350098 244.139694,204.997101 
	C243.773193,205.612747 244.023834,206.629181 244.079727,207.457016 
	C244.304016,210.777939 243.894150,213.327713 239.545242,213.554245 
	C238.365738,213.615707 237.298264,215.827942 236.179382,217.053040 
	C237.321213,217.996796 238.394867,219.046860 239.632782,219.840836 
	C240.281311,220.256790 241.218063,220.223373 242.708557,220.891510 
z"/>
<path fill="#72DEFB" opacity="1.000000" stroke="none" 
	d="
M195.558411,44.646149 
	C195.639786,54.426556 196.220108,63.899097 195.245880,73.208961 
	C194.723343,78.202209 195.824799,80.179565 200.299210,81.487617 
	C209.188278,84.086243 217.404755,88.111839 224.013443,94.767456 
	C232.574341,103.389145 232.087494,115.408600 222.154663,122.436829 
	C215.739716,126.975891 208.389084,130.331207 201.155563,133.534576 
	C194.339447,136.553101 194.367386,136.124069 195.624741,143.222977 
	C197.284805,152.595551 198.265701,162.060287 195.185165,171.350922 
	C191.979324,181.019424 184.379578,185.173172 174.525192,182.927994 
	C164.603073,180.667358 156.726730,174.798309 149.382385,168.223969 
	C145.937851,165.140594 143.705673,165.731659 140.521881,168.616028 
	C133.220322,175.230911 125.345139,181.087891 115.309692,183.020630 
	C104.518532,185.098938 95.414833,178.996933 94.407188,167.899658 
	C93.697311,160.081711 94.192833,152.060196 95.028923,144.223328 
	C95.811745,136.885757 95.665901,136.228592 89.003044,133.557281 
	C83.470200,131.339020 77.932526,128.863571 72.909966,125.690170 
	C54.880791,114.298729 57.397961,98.750755 74.231743,88.699265 
	C79.059425,85.816658 84.282928,83.309174 89.645241,81.691330 
	C94.918266,80.100426 95.588814,77.219894 95.142265,72.408722 
	C94.412315,64.544250 93.784737,56.573074 94.260094,48.716251 
	C95.010818,36.307999 106.060654,28.691416 117.661087,33.186569 
	C125.385452,36.179737 132.530182,41.111256 139.266586,46.080471 
	C145.365356,50.579338 144.686127,50.571476 150.799500,46.104855 
	C157.553787,41.169956 164.709213,36.185555 172.468750,33.366371 
	C183.890137,29.216772 190.571274,33.125961 195.558411,44.646149 
M130.322495,79.042282 
	C129.627548,79.479645 128.660065,79.751572 128.278931,80.379433 
	C123.288872,88.599701 118.222656,96.783043 113.601517,105.209267 
	C112.777260,106.712219 113.300636,109.581459 114.201630,111.293709 
	C117.908752,118.338860 121.762009,125.336731 126.095421,132.005051 
	C127.433945,134.064774 130.383667,136.108917 132.738876,136.289154 
	C140.821350,136.907639 148.998474,137.133698 157.071762,136.558472 
	C159.806824,136.363602 163.155380,133.904175 164.804932,131.504440 
	C168.833542,125.643639 171.993164,119.189751 175.582230,113.020943 
	C177.702103,109.377357 177.810822,105.831100 175.640579,102.182549 
	C171.655716,95.483398 167.924973,88.618965 163.621857,82.132904 
	C162.505203,80.449799 159.692352,79.072411 157.605377,78.995300 
	C148.805893,78.670158 139.986267,78.889748 130.322495,79.042282 
M193.880905,85.050201 
	C188.037735,91.930351 185.979691,100.362030 184.175903,108.883080 
	C184.053787,109.459885 184.439011,110.174629 184.675217,110.791969 
	C186.752594,116.221436 188.581894,121.773109 191.107834,126.986687 
	C191.844299,128.506744 194.904160,130.245422 196.354614,129.855988 
	C205.412994,127.423988 214.042145,123.746925 220.656128,116.822754 
	C226.858429,110.329582 226.560623,105.005302 220.311020,98.568336 
	C213.230377,91.275421 204.237457,87.572037 193.880905,85.050201 
M160.508606,146.027451 
	C157.558777,149.627930 154.340012,153.051498 151.796173,156.919022 
	C150.826416,158.393372 150.477097,161.832779 151.426270,162.762787 
	C158.219055,169.418457 165.551254,175.502731 175.013535,178.071625 
	C182.993927,180.238190 189.827591,176.819199 190.713242,168.783569 
	C191.662338,160.172440 190.791672,151.333450 190.371719,142.610428 
	C190.165619,138.329346 187.178894,137.188797 183.266296,137.917206 
	C179.676102,138.585571 176.082199,139.655930 172.476257,139.715027 
	C167.544205,139.795868 163.753006,141.445282 160.508606,146.027451 
M109.595619,77.141457 
	C112.850273,76.512985 116.107864,75.359131 119.358894,75.377365 
	C124.421181,75.405762 127.720261,73.361084 130.450302,69.225433 
	C132.996857,65.367760 136.141693,61.892124 139.151886,58.357952 
	C141.153641,56.007755 141.339584,53.867435 138.729202,52.038818 
	C132.100769,47.395504 125.791046,42.074196 118.624954,38.475540 
	C108.771584,33.527393 99.561584,39.386589 99.053658,50.533073 
	C98.731018,57.613346 99.297585,64.787605 100.090439,71.849548 
	C100.820076,78.348328 101.954651,78.783890 109.595619,77.141457 
M106.484085,137.830078 
	C102.219917,137.159744 100.224861,139.225433 100.001328,143.299133 
	C99.610344,150.424606 98.889320,157.558792 98.999710,164.678574 
	C99.162247,175.160934 107.652245,181.164230 117.412064,177.653076 
	C126.163544,174.504669 133.510345,168.955353 139.586258,161.944977 
	C140.378540,161.030838 139.961395,158.182236 139.102707,156.901031 
	C137.082291,153.886475 134.179733,151.466141 132.135056,148.464157 
	C128.356216,142.916122 124.033562,139.044571 116.636429,139.612488 
	C113.607002,139.845047 110.458000,138.520035 106.484085,137.830078 
M106.516197,109.000069 
	C103.859421,101.425819 101.279823,93.822189 98.424698,86.323463 
	C98.143852,85.585846 95.990639,84.894211 95.014297,85.191635 
	C85.415558,88.115814 76.146935,91.877701 69.159706,99.416183 
	C64.358727,104.595940 64.877403,111.247803 69.669891,116.375572 
	C75.654579,122.778969 83.339615,126.222954 91.363770,129.074615 
	C97.104668,131.114838 98.626328,130.286072 100.675064,124.610466 
	C102.474953,119.624214 104.361641,114.669296 106.516197,109.000069 
M192.072647,52.868637 
	C191.746964,51.073353 191.508194,49.257080 191.080429,47.486462 
	C189.318985,40.195271 184.384262,36.110676 176.994339,37.138367 
	C165.835663,38.690163 158.013092,46.098328 150.653091,53.903721 
	C150.157211,54.429611 150.069946,56.072685 150.509903,56.636101 
	C155.002762,62.390011 159.537460,68.121178 164.337830,73.616394 
	C165.257187,74.668839 167.357559,74.814766 168.962311,75.119751 
	C173.675415,76.015488 178.460983,76.575653 183.126755,77.660484 
	C187.026337,78.567154 189.539993,77.383614 190.069702,73.518829 
	C190.967270,66.970299 191.436447,60.363052 192.072647,52.868637 
M147.885605,154.387131 
	C148.823776,153.239365 149.910141,152.181274 150.669968,150.925583 
	C152.371658,148.113342 153.910858,145.202774 155.516220,142.332230 
	C152.186111,141.882004 148.846222,141.017822 145.528595,141.096176 
	C142.102448,141.177078 138.697906,142.174286 135.283920,142.770615 
	C137.249985,146.062347 139.014740,149.500198 141.257797,152.590897 
	C142.599014,154.438965 144.253220,156.984497 147.885605,154.387131 
M177.812668,118.291649 
	C175.494949,122.296112 173.050217,126.235550 170.944611,130.348587 
	C170.384995,131.441711 170.523270,133.207138 171.005630,134.393768 
	C171.270813,135.046082 172.974213,135.536423 173.935226,135.406250 
	C177.192902,134.964966 180.431503,134.310898 183.633759,133.553619 
	C186.570160,132.859222 187.802322,130.885864 186.826767,127.965179 
	C185.781281,124.835098 184.618439,121.732147 183.291885,118.711731 
	C182.172745,116.163528 180.531265,114.804497 177.812668,118.291649 
M115.032524,122.486313 
	C113.298096,120.439537 111.563660,118.392754 109.829224,116.345970 
	C108.373344,118.612335 106.916206,120.877884 105.464661,123.147018 
	C105.376907,123.284195 105.329887,123.448349 105.270042,123.602318 
	C102.463333,130.822784 103.898033,134.316254 111.224472,134.194519 
	C112.495567,134.173386 113.775307,135.069504 115.055122,135.080795 
	C116.869286,135.096832 118.687233,134.684677 120.503563,134.455490 
	C120.156601,132.943542 120.061661,131.310654 119.406876,129.946457 
	C118.268082,127.573883 116.783669,125.367203 115.032524,122.486313 
M117.830353,88.275490 
	C118.601776,86.802048 119.416458,85.349358 120.135170,83.850632 
	C121.438652,81.132507 120.128166,80.144363 117.545189,80.156143 
	C103.236214,80.221405 101.437141,82.918686 107.161140,95.951553 
	C107.687210,97.149384 108.857384,98.431343 110.018761,98.831261 
	C110.616806,99.037201 112.079903,97.538170 112.759171,96.541702 
	C114.439659,94.076462 115.893730,91.456871 117.830353,88.275490 
M170.224747,82.715675 
	C172.986832,87.762527 175.650009,92.870407 178.667252,97.759804 
	C178.962067,98.237549 182.343277,97.831619 182.743713,97.046387 
	C184.468018,93.665085 185.726837,90.025307 186.894791,86.395866 
	C187.196716,85.457565 186.884018,83.970200 186.282257,83.158821 
	C184.537720,80.806587 173.278656,80.130875 170.224747,82.715675 
M152.644653,66.903557 
	C146.451950,58.446529 144.411972,58.398159 137.971451,66.589348 
	C137.253296,67.502708 136.604675,68.474960 135.974930,69.452820 
	C134.102127,72.360863 135.192017,73.892807 138.368439,74.014870 
	C142.356873,74.168137 146.364777,74.224442 150.345230,73.993874 
	C152.166595,73.888367 153.942474,72.997314 155.738983,72.462532 
	C154.862427,70.798759 153.985886,69.134987 152.644653,66.903557 
z"/>
<path fill="#6FDDFB" opacity="1.000000" stroke="none" 
	d="
M51.774155,248.276703 
	C50.719566,246.545029 49.681938,245.199768 49.014278,243.690796 
	C46.167732,237.257355 41.567337,234.726685 34.387280,235.556366 
	C30.212080,236.038834 28.846182,237.580643 28.920231,241.424683 
	C29.019705,246.588623 28.930042,251.756119 28.932047,256.922089 
	C28.932978,259.320862 29.082218,261.836761 25.650898,261.943512 
	C22.309380,262.047424 22.042427,259.777710 22.045170,257.226379 
	C22.065769,238.062256 22.100624,218.897903 22.015764,199.734146 
	C22.000404,196.265442 23.415283,194.988464 26.798260,195.041290 
	C34.628670,195.163559 42.464153,194.974213 50.294079,195.111252 
	C61.559063,195.308411 68.933167,202.889603 68.982903,214.102768 
	C69.033440,225.496689 66.084404,229.974792 55.465252,233.917419 
	C52.102448,235.165955 53.080452,236.913605 54.362888,238.864151 
	C57.837727,244.149216 61.421734,249.363037 64.856163,254.673859 
	C66.078362,256.563782 66.994705,258.651489 68.236755,261.000916 
	C63.653271,262.688354 60.391476,262.599304 58.039932,258.323639 
	C56.199024,254.976471 54.000793,251.825790 51.774155,248.276703 
M57.568207,204.889877 
	C56.635906,204.196381 55.747795,202.975418 54.764297,202.893021 
	C47.051971,202.246872 39.324211,201.679153 31.592369,201.521759 
	C30.740229,201.504395 29.138218,204.190567 29.070976,205.676590 
	C28.784979,211.996933 29.011215,218.338486 28.916260,224.670288 
	C28.868771,227.836945 30.194006,229.245377 33.385113,229.175491 
	C37.882824,229.076965 42.387299,229.049667 46.883537,229.178421 
	C53.243656,229.360565 57.965229,226.413620 60.735783,221.058914 
	C63.616955,215.490433 62.393879,210.056122 57.568207,204.889877 
z"/>
<path fill="#73DEFB" opacity="1.000000" stroke="none" 
	d="
M83.137238,254.838776 
	C73.087440,239.603424 77.737770,219.702621 93.442970,214.279999 
	C110.518639,208.384201 123.210648,218.550018 124.837517,235.860214 
	C125.162949,239.322952 122.956749,239.976654 120.057953,239.958725 
	C110.393234,239.898926 100.727737,239.907242 91.062851,239.954086 
	C85.832260,239.979416 84.878387,241.352707 86.410110,246.349075 
	C89.499344,256.425995 100.996155,260.920288 111.856277,256.276703 
	C112.925766,255.819412 113.898872,254.897568 114.984138,254.771484 
	C116.673958,254.575119 118.421600,254.876358 120.144730,254.966705 
	C119.249352,256.513947 118.732124,258.625031 117.398781,259.519196 
	C106.716232,266.682983 92.603279,264.774933 83.137238,254.838776 
M109.522682,219.616776 
	C98.788734,214.936371 88.831528,219.353729 85.372124,230.330795 
	C84.141670,234.235184 85.288025,235.943985 89.479294,235.990723 
	C97.449692,236.079605 105.422272,236.070038 113.392967,235.995499 
	C117.743576,235.954803 119.613121,233.929321 117.797546,230.110840 
	C116.020767,226.373962 112.794830,223.326126 109.522682,219.616776 
z"/>
<path fill="#6FDDFB" opacity="1.000000" stroke="none" 
	d="
M196.011368,237.159851 
	C196.528564,240.345734 196.884583,243.156647 197.616699,245.865906 
	C200.909531,258.051270 214.165939,259.818756 222.149460,255.075592 
	C223.147980,254.482361 224.100769,253.453857 225.133163,253.373032 
	C226.247391,253.285812 228.214691,253.851440 228.408707,254.531830 
	C228.742218,255.701401 228.434952,257.610199 227.617874,258.459808 
	C222.802246,263.467377 216.409515,264.401428 210.064957,263.529205 
	C198.322739,261.915039 190.490036,253.687164 189.196533,242.637527 
	C187.662094,229.529678 192.983109,218.927521 203.964386,214.310364 
	C210.352386,211.624466 223.174988,211.881165 227.618149,218.307510 
	C228.328415,219.334793 228.189056,220.949493 228.442474,222.292633 
	C226.959381,222.433105 225.145309,223.200806 224.043213,222.619263 
	C209.221649,214.798325 199.739700,219.200256 196.148224,235.747559 
	C196.077911,236.071503 196.063721,236.407639 196.011368,237.159851 
z"/>
<path fill="#6FDDFB" opacity="1.000000" stroke="none" 
	d="
M242.366608,220.642212 
	C241.218063,220.223373 240.281311,220.256790 239.632782,219.840836 
	C238.394867,219.046860 237.321213,217.996796 236.179382,217.053040 
	C237.298264,215.827942 238.365738,213.615707 239.545242,213.554245 
	C243.894150,213.327713 244.304016,210.777939 244.079727,207.457016 
	C244.023834,206.629181 243.773193,205.612747 244.139694,204.997101 
	C245.120178,203.350098 246.387024,201.873550 247.540070,200.329285 
	C248.573776,201.839279 249.863876,203.242447 250.552750,204.896072 
	C251.027145,206.034821 250.767014,207.528427 250.662369,208.849747 
	C250.413727,211.989731 251.638626,213.585617 254.938202,213.329147 
	C255.752853,213.265808 256.791351,213.177338 257.370758,213.594772 
	C258.590057,214.473221 259.573395,215.679199 260.653595,216.750732 
	C259.407318,217.793121 258.096161,219.793076 256.925934,219.713730 
	C251.579468,219.351257 250.420013,221.915375 250.602448,226.643066 
	C250.890930,234.118683 250.586639,241.615173 250.726837,249.099182 
	C250.838623,255.066910 252.497253,256.519714 258.265411,257.285187 
	C259.740173,257.480865 261.041748,258.981720 262.422913,259.882935 
	C261.264404,260.882324 260.263550,262.365021 258.921814,262.802704 
	C250.128204,265.671234 244.448029,261.763916 244.156525,252.451126 
	C243.886002,243.808228 244.158234,235.149399 244.008209,226.500778 
	C243.975662,224.624069 243.162277,222.760910 242.366608,220.642212 
z"/>
<path fill="#6FDDFB" opacity="1.000000" stroke="none" 
	d="
M175.345840,226.999954 
	C175.541000,237.448914 175.942810,247.900558 175.807190,258.345215 
	C175.765732,261.537231 173.542770,263.143585 170.083588,260.237305 
	C168.878967,258.361389 167.849823,257.148193 167.022644,255.627899 
	C171.254471,250.473709 171.188019,245.511566 167.319580,239.840561 
	C168.089020,238.488983 168.558304,237.292908 169.027588,236.096832 
	C168.979263,232.800964 168.930923,229.505096 168.895477,225.437683 
	C168.385025,224.109970 167.861694,223.553787 167.338364,222.997620 
	C165.436935,221.648041 163.535492,220.298462 161.192169,218.446854 
	C157.502853,218.149933 154.255402,218.355042 151.007950,218.560150 
	C148.652512,219.697052 146.297089,220.833954 143.182220,222.003815 
	C141.589951,222.026657 140.757126,222.016556 139.924301,222.006454 
	C139.381729,218.187881 141.828156,216.783981 145.565948,215.884094 
	C146.833817,215.416260 147.417130,214.934616 148.000443,214.452972 
	C153.202927,214.190384 158.489502,213.232483 163.585709,213.848755 
	C169.393143,214.551041 173.388535,218.382568 174.647003,224.861267 
	C174.752029,225.911499 175.048935,226.455719 175.345840,226.999954 
z"/>
<path fill="#76DFFB" opacity="1.000000" stroke="none" 
	d="
M166.820679,255.935013 
	C167.849823,257.148193 168.878967,258.361389 169.890503,259.943573 
	C167.779221,260.444885 165.388123,259.966644 163.643860,260.816284 
	C156.456909,264.317169 149.464340,265.376221 142.384186,260.745728 
	C136.345139,256.796173 134.079483,250.028290 136.260254,242.409836 
	C137.929703,236.577682 143.996689,231.801926 150.659149,232.263153 
	C155.457840,232.595337 160.155655,234.369553 164.901932,235.485764 
	C166.003433,235.744843 167.119110,235.943756 168.627914,236.133591 
	C168.558304,237.292908 168.089020,238.488983 166.989197,239.702454 
	C163.786484,238.580536 161.311996,237.054276 158.623550,236.375916 
	C151.154312,234.491226 143.228424,239.310074 142.084488,246.121414 
	C141.002197,252.565659 145.987320,259.127167 153.654709,259.451111 
	C157.986115,259.634125 162.428360,257.193726 166.820679,255.935013 
z"/>
<path fill="#76DFFB" opacity="1.000000" stroke="none" 
	d="
M151.454254,218.644257 
	C154.255402,218.355042 157.502853,218.149933 160.871582,218.288910 
	C157.962082,218.664795 154.931305,218.696594 151.454254,218.644257 
z"/>
<path fill="#76DFFB" opacity="1.000000" stroke="none" 
	d="
M139.999603,222.311310 
	C140.757126,222.016556 141.589951,222.026657 142.840912,222.072815 
	C142.197678,222.277954 141.136292,222.447052 139.999603,222.311310 
z"/>
<path fill="#76DFFB" opacity="1.000000" stroke="none" 
	d="
M147.701981,214.396606 
	C147.417130,214.934616 146.833817,215.416260 145.919952,215.868057 
	C146.194077,215.338882 146.798798,214.839569 147.701981,214.396606 
z"/>
<path fill="#76DFFB" opacity="1.000000" stroke="none" 
	d="
M167.321930,223.297668 
	C167.861694,223.553787 168.385025,224.109970 168.887604,224.997940 
	C168.346390,224.752411 167.825943,224.175079 167.321930,223.297668 
z"/>
<path fill="#76DFFB" opacity="1.000000" stroke="none" 
	d="
M175.468292,226.738663 
	C175.048935,226.455719 174.752029,225.911499 174.639999,225.220520 
	C175.080154,225.541656 175.335449,226.009506 175.468292,226.738663 
z"/>
<path fill="#F9FEFF" opacity="1.000000" stroke="none" 
	d="
M130.748260,78.976173 
	C139.986267,78.889748 148.805893,78.670158 157.605377,78.995300 
	C159.692352,79.072411 162.505203,80.449799 163.621857,82.132904 
	C167.924973,88.618965 171.655716,95.483398 175.640579,102.182549 
	C177.810822,105.831100 177.702103,109.377357 175.582230,113.020943 
	C171.993164,119.189751 168.833542,125.643639 164.804932,131.504440 
	C163.155380,133.904175 159.806824,136.363602 157.071762,136.558472 
	C148.998474,137.133698 140.821350,136.907639 132.738876,136.289154 
	C130.383667,136.108917 127.433945,134.064774 126.095421,132.005051 
	C121.762009,125.336731 117.908752,118.338860 114.201630,111.293709 
	C113.300636,109.581459 112.777260,106.712219 113.601517,105.209267 
	C118.222656,96.783043 123.288872,88.599701 128.278931,80.379433 
	C128.660065,79.751572 129.627548,79.479645 130.748260,78.976173 
M153.462845,96.883141 
	C151.999451,96.109093 150.600235,95.161041 149.060745,94.593353 
	C144.294098,92.835648 137.286148,95.142868 134.343369,99.306221 
	C131.033707,103.988647 130.977081,111.412392 134.218018,115.742577 
	C137.890823,120.649788 143.911438,122.724319 149.106766,120.872810 
	C159.808533,117.058914 162.115128,106.034019 153.462845,96.883141 
z"/>
<path fill="#FBFEFF" opacity="1.000000" stroke="none" 
	d="
M194.273956,85.007408 
	C204.237457,87.572037 213.230377,91.275421 220.311020,98.568336 
	C226.560623,105.005302 226.858429,110.329582 220.656128,116.822754 
	C214.042145,123.746925 205.412994,127.423988 196.354614,129.855988 
	C194.904160,130.245422 191.844299,128.506744 191.107834,126.986687 
	C188.581894,121.773109 186.752594,116.221436 184.675217,110.791969 
	C184.439011,110.174629 184.053787,109.459885 184.175903,108.883080 
	C185.979691,100.362030 188.037735,91.930351 194.273956,85.007408 
z"/>
<path fill="#FAFEFF" opacity="1.000000" stroke="none" 
	d="
M160.734848,145.745544 
	C163.753006,141.445282 167.544205,139.795868 172.476257,139.715027 
	C176.082199,139.655930 179.676102,138.585571 183.266296,137.917206 
	C187.178894,137.188797 190.165619,138.329346 190.371719,142.610428 
	C190.791672,151.333450 191.662338,160.172440 190.713242,168.783569 
	C189.827591,176.819199 182.993927,180.238190 175.013535,178.071625 
	C165.551254,175.502731 158.219055,169.418457 151.426270,162.762787 
	C150.477097,161.832779 150.826416,158.393372 151.796173,156.919022 
	C154.340012,153.051498 157.558777,149.627930 160.734848,145.745544 
z"/>
<path fill="#FBFEFF" opacity="1.000000" stroke="none" 
	d="
M109.183273,77.232605 
	C101.954651,78.783890 100.820076,78.348328 100.090439,71.849548 
	C99.297585,64.787605 98.731018,57.613346 99.053658,50.533073 
	C99.561584,39.386589 108.771584,33.527393 118.624954,38.475540 
	C125.791046,42.074196 132.100769,47.395504 138.729202,52.038818 
	C141.339584,53.867435 141.153641,56.007755 139.151886,58.357952 
	C136.141693,61.892124 132.996857,65.367760 130.450302,69.225433 
	C127.720261,73.361084 124.421181,75.405762 119.358894,75.377365 
	C116.107864,75.359131 112.850273,76.512985 109.183273,77.232605 
z"/>
<path fill="#FAFEFF" opacity="1.000000" stroke="none" 
	d="
M106.923737,137.866821 
	C110.458000,138.520035 113.607002,139.845047 116.636429,139.612488 
	C124.033562,139.044571 128.356216,142.916122 132.135056,148.464157 
	C134.179733,151.466141 137.082291,153.886475 139.102707,156.901031 
	C139.961395,158.182236 140.378540,161.030838 139.586258,161.944977 
	C133.510345,168.955353 126.163544,174.504669 117.412064,177.653076 
	C107.652245,181.164230 99.162247,175.160934 98.999710,164.678574 
	C98.889320,157.558792 99.610344,150.424606 100.001328,143.299133 
	C100.224861,139.225433 102.219917,137.159744 106.923737,137.866821 
z"/>
<path fill="#FBFEFF" opacity="1.000000" stroke="none" 
	d="
M106.363091,109.350304 
	C104.361641,114.669296 102.474953,119.624214 100.675064,124.610466 
	C98.626328,130.286072 97.104668,131.114838 91.363770,129.074615 
	C83.339615,126.222954 75.654579,122.778969 69.669891,116.375572 
	C64.877403,111.247803 64.358727,104.595940 69.159706,99.416183 
	C76.146935,91.877701 85.415558,88.115814 95.014297,85.191635 
	C95.990639,84.894211 98.143852,85.585846 98.424698,86.323463 
	C101.279823,93.822189 103.859421,101.425819 106.363091,109.350304 
z"/>
<path fill="#FAFEFF" opacity="1.000000" stroke="none" 
	d="
M192.079178,53.324562 
	C191.436447,60.363052 190.967270,66.970299 190.069702,73.518829 
	C189.539993,77.383614 187.026337,78.567154 183.126755,77.660484 
	C178.460983,76.575653 173.675415,76.015488 168.962311,75.119751 
	C167.357559,74.814766 165.257187,74.668839 164.337830,73.616394 
	C159.537460,68.121178 155.002762,62.390011 150.509903,56.636101 
	C150.069946,56.072685 150.157211,54.429611 150.653091,53.903721 
	C158.013092,46.098328 165.835663,38.690163 176.994339,37.138367 
	C184.384262,36.110676 189.318985,40.195271 191.080429,47.486462 
	C191.508194,49.257080 191.746964,51.073353 192.079178,53.324562 
z"/>
<path fill="#F3FCFF" opacity="1.000000" stroke="none" 
	d="
M147.601776,154.594452 
	C144.253220,156.984497 142.599014,154.438965 141.257797,152.590897 
	C139.014740,149.500198 137.249985,146.062347 135.283920,142.770630 
	C138.697906,142.174286 142.102448,141.177078 145.528595,141.096176 
	C148.846222,141.017822 152.186111,141.882004 155.516220,142.332230 
	C153.910858,145.202774 152.371658,148.113342 150.669968,150.925583 
	C149.910141,152.181274 148.823776,153.239365 147.601776,154.594452 
z"/>
<path fill="#F3FCFF" opacity="1.000000" stroke="none" 
	d="
M177.985657,117.967499 
	C180.531265,114.804497 182.172745,116.163528 183.291885,118.711731 
	C184.618439,121.732147 185.781281,124.835098 186.826767,127.965179 
	C187.802322,130.885864 186.570160,132.859222 183.633759,133.553619 
	C180.431503,134.310898 177.192902,134.964966 173.935226,135.406250 
	C172.974213,135.536423 171.270813,135.046082 171.005630,134.393768 
	C170.523270,133.207138 170.384995,131.441711 170.944611,130.348587 
	C173.050217,126.235550 175.494949,122.296112 177.985657,117.967499 
z"/>
<path fill="#F3FCFF" opacity="1.000000" stroke="none" 
	d="
M115.238342,122.788635 
	C116.783669,125.367203 118.268082,127.573883 119.406876,129.946457 
	C120.061661,131.310654 120.156601,132.943542 120.503563,134.455490 
	C118.687233,134.684677 116.869286,135.096832 115.055122,135.080795 
	C113.775307,135.069504 112.495567,134.173386 111.224472,134.194519 
	C103.898033,134.316254 102.463333,130.822784 105.270042,123.602318 
	C105.329887,123.448349 105.376907,123.284195 105.464661,123.147018 
	C106.916206,120.877884 108.373344,118.612335 109.829224,116.345978 
	C111.563660,118.392754 113.298096,120.439537 115.238342,122.788635 
z"/>
<path fill="#F3FCFF" opacity="1.000000" stroke="none" 
	d="
M117.634567,88.587402 
	C115.893730,91.456871 114.439659,94.076462 112.759171,96.541702 
	C112.079903,97.538170 110.616806,99.037201 110.018761,98.831261 
	C108.857384,98.431343 107.687210,97.149384 107.161140,95.951553 
	C101.437141,82.918686 103.236214,80.221405 117.545189,80.156143 
	C120.128166,80.144363 121.438652,81.132507 120.135170,83.850632 
	C119.416458,85.349358 118.601776,86.802048 117.634567,88.587402 
z"/>
<path fill="#F3FCFF" opacity="1.000000" stroke="none" 
	d="
M170.367126,82.374023 
	C173.278656,80.130875 184.537720,80.806587 186.282257,83.158821 
	C186.884018,83.970200 187.196716,85.457565 186.894791,86.395866 
	C185.726837,90.025307 184.468018,93.665085 182.743713,97.046387 
	C182.343277,97.831619 178.962067,98.237549 178.667252,97.759804 
	C175.650009,92.870407 172.986832,87.762527 170.367126,82.374023 
z"/>
<path fill="#F3FCFF" opacity="1.000000" stroke="none" 
	d="
M152.876984,67.187386 
	C153.985886,69.134987 154.862427,70.798759 155.738983,72.462524 
	C153.942474,72.997314 152.166595,73.888367 150.345230,73.993874 
	C146.364777,74.224442 142.356873,74.168137 138.368439,74.014870 
	C135.192017,73.892807 134.102127,72.360863 135.974930,69.452820 
	C136.604675,68.474960 137.253296,67.502708 137.971451,66.589348 
	C144.411972,58.398159 146.451950,58.446529 152.876984,67.187386 
z"/>
<path fill="#F9FEFF" opacity="1.000000" stroke="none" 
	d="
M57.841156,205.147583 
	C62.393879,210.056122 63.616955,215.490433 60.735783,221.058914 
	C57.965229,226.413620 53.243656,229.360565 46.883537,229.178421 
	C42.387299,229.049667 37.882824,229.076965 33.385113,229.175491 
	C30.194006,229.245377 28.868771,227.836945 28.916260,224.670288 
	C29.011215,218.338486 28.784979,211.996933 29.070976,205.676590 
	C29.138218,204.190567 30.740229,201.504395 31.592369,201.521759 
	C39.324211,201.679153 47.051971,202.246872 54.764297,202.893021 
	C55.747795,202.975418 56.635906,204.196381 57.841156,205.147583 
z"/>
<path fill="#F9FEFF" opacity="1.000000" stroke="none" 
	d="
M109.863831,219.796310 
	C112.794830,223.326126 116.020767,226.373962 117.797546,230.110840 
	C119.613121,233.929321 117.743576,235.954803 113.392967,235.995499 
	C105.422272,236.070038 97.449692,236.079605 89.479294,235.990723 
	C85.288025,235.943985 84.141670,234.235184 85.372124,230.330795 
	C88.831528,219.353729 98.788734,214.936371 109.863831,219.796310 
z"/>
<path fill="#F9FEFF" opacity="1.000000" stroke="none" 
	d="
M167.022644,255.627899 
	C162.428360,257.193726 157.986115,259.634125 153.654709,259.451111 
	C145.987320,259.127167 141.002197,252.565659 142.084488,246.121414 
	C143.228424,239.310074 151.154312,234.491226 158.623550,236.375916 
	C161.311996,237.054276 163.786484,238.580536 166.689011,239.857956 
	C171.188019,245.511566 171.254471,250.473709 167.022644,255.627899 
z"/>
<path fill="#67DBFB" opacity="1.000000" stroke="none" 
	d="
M153.742035,97.133041 
	C162.115128,106.034019 159.808533,117.058914 149.106766,120.872810 
	C143.911438,122.724319 137.890823,120.649788 134.218018,115.742577 
	C130.977081,111.412392 131.033707,103.988647 134.343369,99.306221 
	C137.286148,95.142868 144.294098,92.835648 149.060745,94.593353 
	C150.600235,95.161041 151.999451,96.109093 153.742035,97.133041 
z"/>
</svg>